<mxfile host="app.diagrams.net" modified="2023-09-11T11:09:22.333Z" agent="Mozilla/5.0 (Windows NT 10.0; Win64; x64) AppleWebKit/537.36 (KHTML, like Gecko) Chrome/116.0.0.0 Safari/537.36 Edg/116.0.1938.76" etag="iJiVQozE7tOdl2mKoqcE" version="21.7.4" type="github">
  <diagram name="Page-1" id="eHVsndWZNQYHEwz9tB8o">
    <mxGraphModel dx="1900" dy="1034" grid="1" gridSize="10" guides="1" tooltips="1" connect="1" arrows="1" fold="1" page="0" pageScale="1" pageWidth="1169" pageHeight="827" math="0" shadow="0">
      <root>
        <mxCell id="0" />
        <mxCell id="1" parent="0" />
        <mxCell id="lbXugLsnfdACKD_rXci8-161" value="" style="group" parent="1" vertex="1" connectable="0">
          <mxGeometry x="-580" y="500" width="666" height="529" as="geometry" />
        </mxCell>
        <mxCell id="lbXugLsnfdACKD_rXci8-162" value="" style="endArrow=none;html=1;rounded=0;" parent="lbXugLsnfdACKD_rXci8-161" edge="1">
          <mxGeometry width="50" height="50" relative="1" as="geometry">
            <mxPoint x="463.03693931398413" y="103.5562805872757" as="sourcePoint" />
            <mxPoint x="535.9630606860158" y="103.5562805872757" as="targetPoint" />
          </mxGeometry>
        </mxCell>
        <mxCell id="lbXugLsnfdACKD_rXci8-163" value="" style="group" parent="lbXugLsnfdACKD_rXci8-161" vertex="1" connectable="0">
          <mxGeometry x="228.44327176781002" y="276.15008156606854" width="212.62796833773086" height="249.39804241435561" as="geometry" />
        </mxCell>
        <mxCell id="lbXugLsnfdACKD_rXci8-164" value="" style="group" parent="lbXugLsnfdACKD_rXci8-163" vertex="1" connectable="0">
          <mxGeometry y="68.17455138662316" width="212.62796833773086" height="181.22349102773245" as="geometry" />
        </mxCell>
        <mxCell id="lbXugLsnfdACKD_rXci8-165" value="" style="whiteSpace=wrap;html=1;aspect=fixed;strokeColor=#000000;fillColor=#d2c6c6;" parent="lbXugLsnfdACKD_rXci8-164" vertex="1">
          <mxGeometry x="70.29023746701847" width="69.03752039151712" height="69.03752039151712" as="geometry" />
        </mxCell>
        <mxCell id="lbXugLsnfdACKD_rXci8-166" value="" style="endArrow=none;html=1;rounded=0;entryX=0;entryY=1;entryDx=0;entryDy=0;" parent="lbXugLsnfdACKD_rXci8-164" target="lbXugLsnfdACKD_rXci8-165" edge="1">
          <mxGeometry width="50" height="50" relative="1" as="geometry">
            <mxPoint x="70.29023746701847" y="181.22349102773245" as="sourcePoint" />
            <mxPoint x="351.45118733509236" y="138.07504078303424" as="targetPoint" />
          </mxGeometry>
        </mxCell>
        <mxCell id="lbXugLsnfdACKD_rXci8-167" value="" style="endArrow=none;html=1;rounded=0;entryX=1;entryY=1;entryDx=0;entryDy=0;" parent="lbXugLsnfdACKD_rXci8-164" target="lbXugLsnfdACKD_rXci8-165" edge="1">
          <mxGeometry width="50" height="50" relative="1" as="geometry">
            <mxPoint x="140.58047493403694" y="181.22349102773245" as="sourcePoint" />
            <mxPoint x="140.58047493403694" y="69.90048939641109" as="targetPoint" />
            <Array as="points">
              <mxPoint x="140.58047493403694" y="164.82707993474713" />
            </Array>
          </mxGeometry>
        </mxCell>
        <mxCell id="lbXugLsnfdACKD_rXci8-168" value="" style="endArrow=none;html=1;rounded=0;entryX=0.5;entryY=1;entryDx=0;entryDy=0;exitX=1;exitY=0.25;exitDx=0;exitDy=0;" parent="lbXugLsnfdACKD_rXci8-164" target="lbXugLsnfdACKD_rXci8-165" edge="1">
          <mxGeometry width="50" height="50" relative="1" as="geometry">
            <mxPoint x="105.43535620052769" y="181.22349102773245" as="sourcePoint" />
            <mxPoint x="105.43535620052769" y="77.66721044045676" as="targetPoint" />
            <Array as="points">
              <mxPoint x="104.99604221635883" y="163.96411092985315" />
            </Array>
          </mxGeometry>
        </mxCell>
        <mxCell id="lbXugLsnfdACKD_rXci8-169" value="" style="endArrow=none;html=1;rounded=0;" parent="lbXugLsnfdACKD_rXci8-164" edge="1">
          <mxGeometry width="50" height="50" relative="1" as="geometry">
            <mxPoint y="69.03752039151712" as="sourcePoint" />
            <mxPoint x="70.29023746701847" y="69.03752039151712" as="targetPoint" />
          </mxGeometry>
        </mxCell>
        <mxCell id="lbXugLsnfdACKD_rXci8-170" value="" style="endArrow=none;html=1;rounded=0;exitX=1;exitY=0;exitDx=0;exitDy=0;" parent="lbXugLsnfdACKD_rXci8-164" source="lbXugLsnfdACKD_rXci8-165" edge="1">
          <mxGeometry width="50" height="50" relative="1" as="geometry">
            <mxPoint x="175.72559366754618" y="8.62969004893964" as="sourcePoint" />
            <mxPoint x="210.87071240105539" as="targetPoint" />
          </mxGeometry>
        </mxCell>
        <mxCell id="lbXugLsnfdACKD_rXci8-171" value="" style="endArrow=none;html=1;rounded=0;" parent="lbXugLsnfdACKD_rXci8-164" edge="1">
          <mxGeometry width="50" height="50" relative="1" as="geometry">
            <mxPoint as="sourcePoint" />
            <mxPoint x="70.29023746701847" as="targetPoint" />
          </mxGeometry>
        </mxCell>
        <mxCell id="lbXugLsnfdACKD_rXci8-172" value="" style="endArrow=none;html=1;rounded=0;exitX=1;exitY=1;exitDx=0;exitDy=0;" parent="lbXugLsnfdACKD_rXci8-164" source="lbXugLsnfdACKD_rXci8-165" edge="1">
          <mxGeometry width="50" height="50" relative="1" as="geometry">
            <mxPoint x="351.45118733509236" y="207.11256117455136" as="sourcePoint" />
            <mxPoint x="210.87071240105539" y="69.03752039151712" as="targetPoint" />
          </mxGeometry>
        </mxCell>
        <mxCell id="lbXugLsnfdACKD_rXci8-173" value="" style="endArrow=none;dashed=1;html=1;dashPattern=1 3;strokeWidth=2;rounded=0;entryX=0.25;entryY=1;entryDx=0;entryDy=0;exitX=1;exitY=0.75;exitDx=0;exitDy=0;" parent="lbXugLsnfdACKD_rXci8-164" edge="1">
          <mxGeometry width="50" height="50" relative="1" as="geometry">
            <mxPoint x="124.76517150395777" y="181.22349102773245" as="sourcePoint" />
            <mxPoint x="124.76517150395757" y="69.03752039151712" as="targetPoint" />
          </mxGeometry>
        </mxCell>
        <mxCell id="lbXugLsnfdACKD_rXci8-174" value="" style="endArrow=none;dashed=1;html=1;dashPattern=1 3;strokeWidth=2;rounded=0;entryX=0;entryY=0.75;entryDx=0;entryDy=0;" parent="lbXugLsnfdACKD_rXci8-164" target="lbXugLsnfdACKD_rXci8-165" edge="1">
          <mxGeometry width="50" height="50" relative="1" as="geometry">
            <mxPoint y="51.77814029363784" as="sourcePoint" />
            <mxPoint x="96.64907651715039" y="77.66721044045676" as="targetPoint" />
            <Array as="points">
              <mxPoint x="35.145118733509236" y="51.77814029363784" />
            </Array>
          </mxGeometry>
        </mxCell>
        <mxCell id="lbXugLsnfdACKD_rXci8-175" value="" style="endArrow=none;dashed=1;html=1;dashPattern=1 3;strokeWidth=2;rounded=0;entryX=0;entryY=0.75;entryDx=0;entryDy=0;" parent="lbXugLsnfdACKD_rXci8-164" edge="1">
          <mxGeometry width="50" height="50" relative="1" as="geometry">
            <mxPoint x="1.7572559366754616" y="22.437194127243064" as="sourcePoint" />
            <mxPoint x="72.04749340369393" y="22.437194127243064" as="targetPoint" />
            <Array as="points">
              <mxPoint x="36.90237467018469" y="22.437194127243064" />
            </Array>
          </mxGeometry>
        </mxCell>
        <mxCell id="lbXugLsnfdACKD_rXci8-176" value="" style="shape=image;html=1;verticalAlign=top;verticalLabelPosition=bottom;labelBackgroundColor=#ffffff;imageAspect=0;aspect=fixed;image=https://cdn2.iconfinder.com/data/icons/crystalproject/128x128/apps/daemons.png" parent="lbXugLsnfdACKD_rXci8-164" vertex="1">
          <mxGeometry x="93.13456464379946" y="46.60032626427406" width="24.163132137030992" height="24.163132137030992" as="geometry" />
        </mxCell>
        <mxCell id="lbXugLsnfdACKD_rXci8-177" value="" style="curved=1;endArrow=classic;html=1;rounded=0;" parent="lbXugLsnfdACKD_rXci8-164" edge="1">
          <mxGeometry width="50" height="50" relative="1" as="geometry">
            <mxPoint x="117.73614775725594" y="79.3931484502447" as="sourcePoint" />
            <mxPoint x="58.86807387862797" y="29.340946166394776" as="targetPoint" />
            <Array as="points">
              <mxPoint x="117.73614775725594" y="69.90048939641109" />
              <mxPoint x="117.73614775725594" y="69.90048939641109" />
              <mxPoint x="117.73614775725594" y="69.90048939641109" />
              <mxPoint x="117.73614775725594" y="52.6411092985318" />
              <mxPoint x="111.58575197889182" y="35.38172920065252" />
              <mxPoint x="94.0131926121372" y="29.340946166394776" />
            </Array>
          </mxGeometry>
        </mxCell>
        <mxCell id="lbXugLsnfdACKD_rXci8-178" value="" style="shape=image;html=1;verticalAlign=top;verticalLabelPosition=bottom;labelBackgroundColor=#ffffff;imageAspect=0;aspect=fixed;image=https://cdn4.iconfinder.com/data/icons/transportation-190/1000/transport_automobile_auto_sedan_car_transportation_vehicle-128.png;rotation=90;" parent="lbXugLsnfdACKD_rXci8-164" vertex="1">
          <mxGeometry x="99.28496042216358" y="112.18597063621532" width="34.51876019575856" height="34.51876019575856" as="geometry" />
        </mxCell>
        <mxCell id="lbXugLsnfdACKD_rXci8-179" value="" style="group;rotation=90;" parent="lbXugLsnfdACKD_rXci8-164" vertex="1" connectable="0">
          <mxGeometry x="140.58047493403694" width="70.29023746701847" height="69.03752039151712" as="geometry" />
        </mxCell>
        <mxCell id="lbXugLsnfdACKD_rXci8-180" value="" style="endArrow=none;html=1;rounded=0;" parent="lbXugLsnfdACKD_rXci8-179" edge="1">
          <mxGeometry width="50" height="50" relative="1" as="geometry">
            <mxPoint x="70.29023746701847" as="sourcePoint" />
            <mxPoint as="targetPoint" />
          </mxGeometry>
        </mxCell>
        <mxCell id="lbXugLsnfdACKD_rXci8-181" value="" style="endArrow=none;html=1;rounded=0;" parent="lbXugLsnfdACKD_rXci8-179" edge="1">
          <mxGeometry width="50" height="50" relative="1" as="geometry">
            <mxPoint x="69.41160949868075" y="34.51876019575856" as="sourcePoint" />
            <mxPoint y="34.51876019575856" as="targetPoint" />
          </mxGeometry>
        </mxCell>
        <mxCell id="lbXugLsnfdACKD_rXci8-182" value="" style="endArrow=none;html=1;rounded=0;" parent="lbXugLsnfdACKD_rXci8-179" edge="1">
          <mxGeometry width="50" height="50" relative="1" as="geometry">
            <mxPoint x="70.29023746701847" y="69.03752039151712" as="sourcePoint" />
            <mxPoint y="69.03752039151712" as="targetPoint" />
          </mxGeometry>
        </mxCell>
        <mxCell id="lbXugLsnfdACKD_rXci8-183" value="" style="endArrow=none;dashed=1;html=1;dashPattern=1 3;strokeWidth=2;rounded=0;exitX=1;exitY=0.75;exitDx=0;exitDy=0;" parent="lbXugLsnfdACKD_rXci8-179" edge="1">
          <mxGeometry width="50" height="50" relative="1" as="geometry">
            <mxPoint x="0.8786279683377309" y="18.985318107667208" as="sourcePoint" />
            <mxPoint x="61.50395778364116" y="18.985318107667208" as="targetPoint" />
          </mxGeometry>
        </mxCell>
        <mxCell id="lbXugLsnfdACKD_rXci8-184" value="" style="endArrow=none;dashed=1;html=1;dashPattern=1 3;strokeWidth=2;rounded=0;exitX=1;exitY=0.75;exitDx=0;exitDy=0;" parent="lbXugLsnfdACKD_rXci8-179" edge="1">
          <mxGeometry width="50" height="50" relative="1" as="geometry">
            <mxPoint x="0.8786279683377309" y="53.50407830342577" as="sourcePoint" />
            <mxPoint x="61.50395778364116" y="53.50407830342577" as="targetPoint" />
          </mxGeometry>
        </mxCell>
        <mxCell id="lbXugLsnfdACKD_rXci8-185" value="" style="endArrow=none;html=1;rounded=0;" parent="lbXugLsnfdACKD_rXci8-164" edge="1">
          <mxGeometry width="50" height="50" relative="1" as="geometry">
            <mxPoint x="8.786279683377309" y="35.38172920065252" as="sourcePoint" />
            <mxPoint x="70.29023746701847" y="35.38172920065252" as="targetPoint" />
          </mxGeometry>
        </mxCell>
        <mxCell id="lbXugLsnfdACKD_rXci8-186" value="" style="group" parent="lbXugLsnfdACKD_rXci8-163" vertex="1" connectable="0">
          <mxGeometry x="70.29023746701847" width="70.29023746701847" height="69.03752039151713" as="geometry" />
        </mxCell>
        <mxCell id="lbXugLsnfdACKD_rXci8-187" value="" style="endArrow=none;html=1;rounded=0;" parent="lbXugLsnfdACKD_rXci8-186" edge="1">
          <mxGeometry width="50" height="50" relative="1" as="geometry">
            <mxPoint as="sourcePoint" />
            <mxPoint y="69.03752039151713" as="targetPoint" />
          </mxGeometry>
        </mxCell>
        <mxCell id="lbXugLsnfdACKD_rXci8-188" value="" style="endArrow=none;html=1;rounded=0;" parent="lbXugLsnfdACKD_rXci8-186" edge="1">
          <mxGeometry width="50" height="50" relative="1" as="geometry">
            <mxPoint x="35.145118733509236" y="0.8629690048939642" as="sourcePoint" />
            <mxPoint x="35.145118733509236" y="69.03752039151713" as="targetPoint" />
          </mxGeometry>
        </mxCell>
        <mxCell id="lbXugLsnfdACKD_rXci8-189" value="" style="endArrow=none;html=1;rounded=0;" parent="lbXugLsnfdACKD_rXci8-186" edge="1">
          <mxGeometry width="50" height="50" relative="1" as="geometry">
            <mxPoint x="70.29023746701847" as="sourcePoint" />
            <mxPoint x="70.29023746701847" y="69.03752039151713" as="targetPoint" />
          </mxGeometry>
        </mxCell>
        <mxCell id="lbXugLsnfdACKD_rXci8-190" value="" style="endArrow=none;dashed=1;html=1;dashPattern=1 3;strokeWidth=2;rounded=0;exitX=1;exitY=0.75;exitDx=0;exitDy=0;" parent="lbXugLsnfdACKD_rXci8-186" edge="1">
          <mxGeometry width="50" height="50" relative="1" as="geometry">
            <mxPoint x="19.32981530343008" y="68.17455138662318" as="sourcePoint" />
            <mxPoint x="19.32981530343008" y="8.629690048939642" as="targetPoint" />
          </mxGeometry>
        </mxCell>
        <mxCell id="lbXugLsnfdACKD_rXci8-191" value="" style="endArrow=none;dashed=1;html=1;dashPattern=1 3;strokeWidth=2;rounded=0;exitX=1;exitY=0.75;exitDx=0;exitDy=0;" parent="lbXugLsnfdACKD_rXci8-186" edge="1">
          <mxGeometry width="50" height="50" relative="1" as="geometry">
            <mxPoint x="54.47493403693932" y="68.17455138662318" as="sourcePoint" />
            <mxPoint x="54.47493403693932" y="8.629690048939642" as="targetPoint" />
          </mxGeometry>
        </mxCell>
        <mxCell id="lbXugLsnfdACKD_rXci8-192" value="" style="endArrow=classic;html=1;rounded=0;" parent="lbXugLsnfdACKD_rXci8-161" edge="1">
          <mxGeometry width="50" height="50" relative="1" as="geometry">
            <mxPoint x="361.9947229551451" y="215.74225122349102" as="sourcePoint" />
            <mxPoint x="344.4221635883905" y="181.22349102773245" as="targetPoint" />
            <Array as="points">
              <mxPoint x="344.4221635883905" y="198.48287112561175" />
            </Array>
          </mxGeometry>
        </mxCell>
        <mxCell id="lbXugLsnfdACKD_rXci8-193" value="" style="endArrow=none;dashed=1;html=1;dashPattern=1 3;strokeWidth=2;rounded=0;entryX=0;entryY=0.75;entryDx=0;entryDy=0;" parent="lbXugLsnfdACKD_rXci8-161" edge="1">
          <mxGeometry width="50" height="50" relative="1" as="geometry">
            <mxPoint x="230.20052770448547" y="118.22675367047309" as="sourcePoint" />
            <mxPoint x="300.49076517150394" y="118.22675367047309" as="targetPoint" />
            <Array as="points">
              <mxPoint x="265.34564643799473" y="118.22675367047309" />
            </Array>
          </mxGeometry>
        </mxCell>
        <mxCell id="lbXugLsnfdACKD_rXci8-194" value="" style="endArrow=none;dashed=1;html=1;dashPattern=1 3;strokeWidth=2;rounded=0;entryX=0;entryY=0.75;entryDx=0;entryDy=0;" parent="lbXugLsnfdACKD_rXci8-161" edge="1">
          <mxGeometry width="50" height="50" relative="1" as="geometry">
            <mxPoint x="231.95778364116094" y="88.8858075040783" as="sourcePoint" />
            <mxPoint x="302.2480211081794" y="88.8858075040783" as="targetPoint" />
            <Array as="points">
              <mxPoint x="267.1029023746702" y="88.8858075040783" />
            </Array>
          </mxGeometry>
        </mxCell>
        <mxCell id="lbXugLsnfdACKD_rXci8-195" value="" style="group" parent="lbXugLsnfdACKD_rXci8-161" vertex="1" connectable="0">
          <mxGeometry x="0.8786279683377308" y="276.15008156606854" width="210.87071240105539" height="251.12398042414355" as="geometry" />
        </mxCell>
        <mxCell id="lbXugLsnfdACKD_rXci8-196" value="" style="group" parent="lbXugLsnfdACKD_rXci8-195" vertex="1" connectable="0">
          <mxGeometry y="51.77814029363785" width="210.87071240105539" height="199.3458401305057" as="geometry" />
        </mxCell>
        <mxCell id="lbXugLsnfdACKD_rXci8-197" value="" style="whiteSpace=wrap;html=1;aspect=fixed;strokeColor=#000000;fillColor=#d2c6c6;" parent="lbXugLsnfdACKD_rXci8-196" vertex="1">
          <mxGeometry x="70.29023746701847" y="18.122349102773246" width="69.03752039151713" height="69.03752039151713" as="geometry" />
        </mxCell>
        <mxCell id="lbXugLsnfdACKD_rXci8-198" value="" style="endArrow=none;html=1;rounded=0;entryX=0;entryY=1;entryDx=0;entryDy=0;" parent="lbXugLsnfdACKD_rXci8-196" target="lbXugLsnfdACKD_rXci8-197" edge="1">
          <mxGeometry width="50" height="50" relative="1" as="geometry">
            <mxPoint x="70.29023746701847" y="199.3458401305057" as="sourcePoint" />
            <mxPoint x="351.45118733509236" y="156.1973898858075" as="targetPoint" />
          </mxGeometry>
        </mxCell>
        <mxCell id="lbXugLsnfdACKD_rXci8-199" value="" style="endArrow=none;html=1;rounded=0;entryX=1;entryY=1;entryDx=0;entryDy=0;" parent="lbXugLsnfdACKD_rXci8-196" target="lbXugLsnfdACKD_rXci8-197" edge="1">
          <mxGeometry width="50" height="50" relative="1" as="geometry">
            <mxPoint x="140.58047493403694" y="199.3458401305057" as="sourcePoint" />
            <mxPoint x="140.58047493403694" y="88.02283849918435" as="targetPoint" />
            <Array as="points">
              <mxPoint x="140.58047493403694" y="182.9494290375204" />
            </Array>
          </mxGeometry>
        </mxCell>
        <mxCell id="lbXugLsnfdACKD_rXci8-200" value="" style="endArrow=none;html=1;rounded=0;entryX=0.5;entryY=1;entryDx=0;entryDy=0;" parent="lbXugLsnfdACKD_rXci8-196" target="lbXugLsnfdACKD_rXci8-197" edge="1">
          <mxGeometry width="50" height="50" relative="1" as="geometry">
            <mxPoint x="105.43535620052769" y="198.48287112561175" as="sourcePoint" />
            <mxPoint x="105.43535620052769" y="95.78955954323001" as="targetPoint" />
            <Array as="points">
              <mxPoint x="104.99604221635883" y="182.08646003262643" />
            </Array>
          </mxGeometry>
        </mxCell>
        <mxCell id="lbXugLsnfdACKD_rXci8-201" value="" style="endArrow=none;html=1;rounded=0;" parent="lbXugLsnfdACKD_rXci8-196" edge="1">
          <mxGeometry width="50" height="50" relative="1" as="geometry">
            <mxPoint y="87.15986949429038" as="sourcePoint" />
            <mxPoint x="70.29023746701847" y="87.15986949429038" as="targetPoint" />
          </mxGeometry>
        </mxCell>
        <mxCell id="lbXugLsnfdACKD_rXci8-202" value="" style="shape=image;html=1;verticalAlign=top;verticalLabelPosition=bottom;labelBackgroundColor=#ffffff;imageAspect=0;aspect=fixed;image=https://cdn4.iconfinder.com/data/icons/transportation-190/1000/transport_automobile_auto_sedan_car_transportation_vehicle-128.png;rotation=90;" parent="lbXugLsnfdACKD_rXci8-196" vertex="1">
          <mxGeometry x="116.8575197889182" y="164.82707993474713" width="34.51876019575857" height="34.51876019575857" as="geometry" />
        </mxCell>
        <mxCell id="lbXugLsnfdACKD_rXci8-203" value="" style="endArrow=none;html=1;rounded=0;exitX=1;exitY=0;exitDx=0;exitDy=0;" parent="lbXugLsnfdACKD_rXci8-196" source="lbXugLsnfdACKD_rXci8-197" edge="1">
          <mxGeometry width="50" height="50" relative="1" as="geometry">
            <mxPoint x="175.72559366754618" y="26.752039151712886" as="sourcePoint" />
            <mxPoint x="210.87071240105539" y="18.122349102773246" as="targetPoint" />
          </mxGeometry>
        </mxCell>
        <mxCell id="lbXugLsnfdACKD_rXci8-204" value="" style="endArrow=none;html=1;rounded=0;" parent="lbXugLsnfdACKD_rXci8-196" edge="1">
          <mxGeometry width="50" height="50" relative="1" as="geometry">
            <mxPoint y="18.122349102773246" as="sourcePoint" />
            <mxPoint x="70.29023746701847" y="18.122349102773246" as="targetPoint" />
          </mxGeometry>
        </mxCell>
        <mxCell id="lbXugLsnfdACKD_rXci8-205" value="" style="endArrow=none;html=1;rounded=0;exitX=1;exitY=1;exitDx=0;exitDy=0;" parent="lbXugLsnfdACKD_rXci8-196" source="lbXugLsnfdACKD_rXci8-197" edge="1">
          <mxGeometry width="50" height="50" relative="1" as="geometry">
            <mxPoint x="351.45118733509236" y="225.23491027732464" as="sourcePoint" />
            <mxPoint x="210.87071240105539" y="87.15986949429038" as="targetPoint" />
          </mxGeometry>
        </mxCell>
        <mxCell id="lbXugLsnfdACKD_rXci8-206" value="" style="endArrow=none;dashed=1;html=1;dashPattern=1 3;strokeWidth=2;rounded=0;entryX=0.25;entryY=1;entryDx=0;entryDy=0;exitX=1;exitY=0.75;exitDx=0;exitDy=0;" parent="lbXugLsnfdACKD_rXci8-196" edge="1">
          <mxGeometry width="50" height="50" relative="1" as="geometry">
            <mxPoint x="123.88654353562005" y="199.3458401305057" as="sourcePoint" />
            <mxPoint x="123.88654353562005" y="87.15986949429038" as="targetPoint" />
          </mxGeometry>
        </mxCell>
        <mxCell id="lbXugLsnfdACKD_rXci8-207" value="" style="endArrow=none;dashed=1;html=1;dashPattern=1 3;strokeWidth=2;rounded=0;entryX=0;entryY=0.75;entryDx=0;entryDy=0;" parent="lbXugLsnfdACKD_rXci8-196" target="lbXugLsnfdACKD_rXci8-197" edge="1">
          <mxGeometry width="50" height="50" relative="1" as="geometry">
            <mxPoint y="69.90048939641109" as="sourcePoint" />
            <mxPoint x="96.64907651715039" y="95.78955954323001" as="targetPoint" />
            <Array as="points">
              <mxPoint x="35.145118733509236" y="69.90048939641109" />
            </Array>
          </mxGeometry>
        </mxCell>
        <mxCell id="lbXugLsnfdACKD_rXci8-208" value="" style="endArrow=none;dashed=1;html=1;dashPattern=1 3;strokeWidth=2;rounded=0;entryX=0;entryY=0.75;entryDx=0;entryDy=0;" parent="lbXugLsnfdACKD_rXci8-196" edge="1">
          <mxGeometry width="50" height="50" relative="1" as="geometry">
            <mxPoint x="1.7572559366754616" y="40.55954323001631" as="sourcePoint" />
            <mxPoint x="72.04749340369393" y="40.55954323001631" as="targetPoint" />
            <Array as="points">
              <mxPoint x="36.90237467018469" y="40.55954323001631" />
            </Array>
          </mxGeometry>
        </mxCell>
        <mxCell id="lbXugLsnfdACKD_rXci8-209" value="" style="shape=image;html=1;verticalAlign=top;verticalLabelPosition=bottom;labelBackgroundColor=#ffffff;imageAspect=0;aspect=fixed;image=https://cdn2.iconfinder.com/data/icons/crystalproject/128x128/apps/daemons.png" parent="lbXugLsnfdACKD_rXci8-196" vertex="1">
          <mxGeometry x="93.13456464379946" y="63.85970636215335" width="24.163132137030995" height="24.163132137030995" as="geometry" />
        </mxCell>
        <mxCell id="lbXugLsnfdACKD_rXci8-210" value="" style="curved=1;endArrow=classic;html=1;rounded=0;" parent="lbXugLsnfdACKD_rXci8-196" edge="1">
          <mxGeometry width="50" height="50" relative="1" as="geometry">
            <mxPoint x="132.67282321899737" y="102.69331158238172" as="sourcePoint" />
            <mxPoint x="188.0263852242744" y="42.28548123980424" as="targetPoint" />
            <Array as="points">
              <mxPoint x="132.67282321899737" y="76.8042414355628" />
              <mxPoint x="132.67282321899737" y="50.915171288743885" />
              <mxPoint x="144.09498680738787" y="42.28548123980424" />
            </Array>
          </mxGeometry>
        </mxCell>
        <mxCell id="lbXugLsnfdACKD_rXci8-211" value="" style="group;rotation=90;" parent="lbXugLsnfdACKD_rXci8-196" vertex="1" connectable="0">
          <mxGeometry x="140.58047493403694" y="18.122349102773246" width="70.29023746701847" height="69.03752039151713" as="geometry" />
        </mxCell>
        <mxCell id="lbXugLsnfdACKD_rXci8-212" value="" style="endArrow=none;html=1;rounded=0;" parent="lbXugLsnfdACKD_rXci8-211" edge="1">
          <mxGeometry width="50" height="50" relative="1" as="geometry">
            <mxPoint x="70.29023746701847" as="sourcePoint" />
            <mxPoint as="targetPoint" />
          </mxGeometry>
        </mxCell>
        <mxCell id="lbXugLsnfdACKD_rXci8-213" value="" style="endArrow=none;html=1;rounded=0;" parent="lbXugLsnfdACKD_rXci8-211" edge="1">
          <mxGeometry width="50" height="50" relative="1" as="geometry">
            <mxPoint x="69.41160949868075" y="34.51876019575857" as="sourcePoint" />
            <mxPoint y="34.51876019575857" as="targetPoint" />
          </mxGeometry>
        </mxCell>
        <mxCell id="lbXugLsnfdACKD_rXci8-214" value="" style="endArrow=none;html=1;rounded=0;" parent="lbXugLsnfdACKD_rXci8-211" edge="1">
          <mxGeometry width="50" height="50" relative="1" as="geometry">
            <mxPoint x="70.29023746701847" y="69.03752039151713" as="sourcePoint" />
            <mxPoint y="69.03752039151713" as="targetPoint" />
          </mxGeometry>
        </mxCell>
        <mxCell id="lbXugLsnfdACKD_rXci8-215" value="" style="endArrow=none;dashed=1;html=1;dashPattern=1 3;strokeWidth=2;rounded=0;exitX=1;exitY=0.75;exitDx=0;exitDy=0;" parent="lbXugLsnfdACKD_rXci8-211" edge="1">
          <mxGeometry width="50" height="50" relative="1" as="geometry">
            <mxPoint x="0.8786279683377309" y="18.98531810766721" as="sourcePoint" />
            <mxPoint x="61.50395778364116" y="18.98531810766721" as="targetPoint" />
          </mxGeometry>
        </mxCell>
        <mxCell id="lbXugLsnfdACKD_rXci8-216" value="" style="endArrow=none;dashed=1;html=1;dashPattern=1 3;strokeWidth=2;rounded=0;exitX=1;exitY=0.75;exitDx=0;exitDy=0;" parent="lbXugLsnfdACKD_rXci8-211" edge="1">
          <mxGeometry width="50" height="50" relative="1" as="geometry">
            <mxPoint x="0.8786279683377309" y="53.50407830342578" as="sourcePoint" />
            <mxPoint x="61.50395778364116" y="53.50407830342578" as="targetPoint" />
          </mxGeometry>
        </mxCell>
        <mxCell id="lbXugLsnfdACKD_rXci8-217" value="" style="endArrow=none;html=1;rounded=0;" parent="lbXugLsnfdACKD_rXci8-196" edge="1">
          <mxGeometry width="50" height="50" relative="1" as="geometry">
            <mxPoint x="8.786279683377309" y="52.22688417618269" as="sourcePoint" />
            <mxPoint x="70.29023746701847" y="52.22688417618269" as="targetPoint" />
          </mxGeometry>
        </mxCell>
        <mxCell id="lbXugLsnfdACKD_rXci8-218" value="" style="group" parent="lbXugLsnfdACKD_rXci8-195" vertex="1" connectable="0">
          <mxGeometry x="69.41160949868073" width="70.29023746701847" height="69.03752039151713" as="geometry" />
        </mxCell>
        <mxCell id="lbXugLsnfdACKD_rXci8-219" value="" style="endArrow=none;html=1;rounded=0;" parent="lbXugLsnfdACKD_rXci8-218" edge="1">
          <mxGeometry width="50" height="50" relative="1" as="geometry">
            <mxPoint as="sourcePoint" />
            <mxPoint y="69.03752039151713" as="targetPoint" />
          </mxGeometry>
        </mxCell>
        <mxCell id="lbXugLsnfdACKD_rXci8-220" value="" style="endArrow=none;html=1;rounded=0;" parent="lbXugLsnfdACKD_rXci8-218" edge="1">
          <mxGeometry width="50" height="50" relative="1" as="geometry">
            <mxPoint x="35.145118733509236" y="0.8629690048939642" as="sourcePoint" />
            <mxPoint x="35.145118733509236" y="69.03752039151713" as="targetPoint" />
          </mxGeometry>
        </mxCell>
        <mxCell id="lbXugLsnfdACKD_rXci8-221" value="" style="endArrow=none;html=1;rounded=0;" parent="lbXugLsnfdACKD_rXci8-218" edge="1">
          <mxGeometry width="50" height="50" relative="1" as="geometry">
            <mxPoint x="70.29023746701847" as="sourcePoint" />
            <mxPoint x="70.29023746701847" y="69.03752039151713" as="targetPoint" />
          </mxGeometry>
        </mxCell>
        <mxCell id="lbXugLsnfdACKD_rXci8-222" value="" style="endArrow=none;dashed=1;html=1;dashPattern=1 3;strokeWidth=2;rounded=0;exitX=1;exitY=0.75;exitDx=0;exitDy=0;" parent="lbXugLsnfdACKD_rXci8-218" edge="1">
          <mxGeometry width="50" height="50" relative="1" as="geometry">
            <mxPoint x="19.32981530343008" y="68.17455138662318" as="sourcePoint" />
            <mxPoint x="19.32981530343008" y="8.629690048939642" as="targetPoint" />
          </mxGeometry>
        </mxCell>
        <mxCell id="lbXugLsnfdACKD_rXci8-223" value="" style="endArrow=none;dashed=1;html=1;dashPattern=1 3;strokeWidth=2;rounded=0;exitX=1;exitY=0.75;exitDx=0;exitDy=0;" parent="lbXugLsnfdACKD_rXci8-218" edge="1">
          <mxGeometry width="50" height="50" relative="1" as="geometry">
            <mxPoint x="54.47493403693932" y="68.17455138662318" as="sourcePoint" />
            <mxPoint x="54.47493403693932" y="8.629690048939642" as="targetPoint" />
          </mxGeometry>
        </mxCell>
        <mxCell id="lbXugLsnfdACKD_rXci8-224" value="" style="group" parent="lbXugLsnfdACKD_rXci8-161" vertex="1" connectable="0">
          <mxGeometry x="455.1292875989446" width="210.87071240105539" height="250.2610114192496" as="geometry" />
        </mxCell>
        <mxCell id="lbXugLsnfdACKD_rXci8-225" value="" style="group" parent="lbXugLsnfdACKD_rXci8-224" vertex="1" connectable="0">
          <mxGeometry x="10.54353562005277" y="68.17455138662316" width="210.87071240105539" height="182.08646003262643" as="geometry" />
        </mxCell>
        <mxCell id="lbXugLsnfdACKD_rXci8-226" value="" style="endArrow=none;html=1;rounded=0;" parent="lbXugLsnfdACKD_rXci8-225" edge="1">
          <mxGeometry width="50" height="50" relative="1" as="geometry">
            <mxPoint y="69.03752039151713" as="sourcePoint" />
            <mxPoint x="70.29023746701847" y="69.03752039151713" as="targetPoint" />
          </mxGeometry>
        </mxCell>
        <mxCell id="lbXugLsnfdACKD_rXci8-227" value="" style="endArrow=none;html=1;rounded=0;" parent="lbXugLsnfdACKD_rXci8-225" edge="1">
          <mxGeometry width="50" height="50" relative="1" as="geometry">
            <mxPoint as="sourcePoint" />
            <mxPoint x="70.29023746701847" as="targetPoint" />
          </mxGeometry>
        </mxCell>
        <mxCell id="lbXugLsnfdACKD_rXci8-228" value="" style="endArrow=none;dashed=1;html=1;dashPattern=1 3;strokeWidth=2;rounded=0;entryX=0;entryY=0.75;entryDx=0;entryDy=0;" parent="lbXugLsnfdACKD_rXci8-225" edge="1">
          <mxGeometry width="50" height="50" relative="1" as="geometry">
            <mxPoint x="0.8786279683377308" y="50.915171288743885" as="sourcePoint" />
            <mxPoint x="71.1688654353562" y="50.915171288743885" as="targetPoint" />
            <Array as="points">
              <mxPoint x="36.02374670184697" y="50.915171288743885" />
            </Array>
          </mxGeometry>
        </mxCell>
        <mxCell id="lbXugLsnfdACKD_rXci8-229" value="" style="group" parent="lbXugLsnfdACKD_rXci8-225" vertex="1" connectable="0">
          <mxGeometry x="37.78100263852242" width="173.08970976253298" height="182.08646003262643" as="geometry" />
        </mxCell>
        <mxCell id="lbXugLsnfdACKD_rXci8-230" value="" style="whiteSpace=wrap;html=1;aspect=fixed;fillColor=#d2c6c6;strokeColor=#000000;" parent="lbXugLsnfdACKD_rXci8-229" vertex="1">
          <mxGeometry x="32.50923482849604" width="69.03752039151713" height="69.03752039151713" as="geometry" />
        </mxCell>
        <mxCell id="lbXugLsnfdACKD_rXci8-231" value="" style="endArrow=none;html=1;rounded=0;entryX=0;entryY=1;entryDx=0;entryDy=0;" parent="lbXugLsnfdACKD_rXci8-229" target="lbXugLsnfdACKD_rXci8-230" edge="1">
          <mxGeometry width="50" height="50" relative="1" as="geometry">
            <mxPoint x="32.50923482849604" y="181.22349102773245" as="sourcePoint" />
            <mxPoint x="313.6701846965699" y="138.07504078303427" as="targetPoint" />
          </mxGeometry>
        </mxCell>
        <mxCell id="lbXugLsnfdACKD_rXci8-232" value="" style="endArrow=none;html=1;rounded=0;entryX=1;entryY=1;entryDx=0;entryDy=0;" parent="lbXugLsnfdACKD_rXci8-229" target="lbXugLsnfdACKD_rXci8-230" edge="1">
          <mxGeometry width="50" height="50" relative="1" as="geometry">
            <mxPoint x="102.7994722955145" y="181.22349102773245" as="sourcePoint" />
            <mxPoint x="102.7994722955145" y="69.90048939641109" as="targetPoint" />
            <Array as="points">
              <mxPoint x="102.7994722955145" y="164.82707993474713" />
            </Array>
          </mxGeometry>
        </mxCell>
        <mxCell id="lbXugLsnfdACKD_rXci8-233" value="" style="endArrow=none;html=1;rounded=0;entryX=0.5;entryY=1;entryDx=0;entryDy=0;" parent="lbXugLsnfdACKD_rXci8-229" target="lbXugLsnfdACKD_rXci8-230" edge="1">
          <mxGeometry width="50" height="50" relative="1" as="geometry">
            <mxPoint x="67.65435356200527" y="182.08646003262643" as="sourcePoint" />
            <mxPoint x="67.65435356200527" y="77.66721044045677" as="targetPoint" />
            <Array as="points" />
          </mxGeometry>
        </mxCell>
        <mxCell id="lbXugLsnfdACKD_rXci8-234" value="" style="shape=image;html=1;verticalAlign=top;verticalLabelPosition=bottom;labelBackgroundColor=#ffffff;imageAspect=0;aspect=fixed;image=https://cdn4.iconfinder.com/data/icons/transportation-190/1000/transport_automobile_auto_sedan_car_transportation_vehicle-128.png;rotation=90;" parent="lbXugLsnfdACKD_rXci8-229" vertex="1">
          <mxGeometry x="78.19788918205805" y="148.43066884176181" width="34.51876019575857" height="34.51876019575857" as="geometry" />
        </mxCell>
        <mxCell id="lbXugLsnfdACKD_rXci8-235" value="" style="endArrow=none;html=1;rounded=0;exitX=1;exitY=0;exitDx=0;exitDy=0;" parent="lbXugLsnfdACKD_rXci8-229" source="lbXugLsnfdACKD_rXci8-230" edge="1">
          <mxGeometry width="50" height="50" relative="1" as="geometry">
            <mxPoint x="137.94459102902374" y="8.629690048939642" as="sourcePoint" />
            <mxPoint x="173.08970976253298" as="targetPoint" />
          </mxGeometry>
        </mxCell>
        <mxCell id="lbXugLsnfdACKD_rXci8-236" value="" style="endArrow=none;html=1;rounded=0;exitX=1;exitY=1;exitDx=0;exitDy=0;" parent="lbXugLsnfdACKD_rXci8-229" source="lbXugLsnfdACKD_rXci8-230" edge="1">
          <mxGeometry width="50" height="50" relative="1" as="geometry">
            <mxPoint x="313.6701846965699" y="207.1125611745514" as="sourcePoint" />
            <mxPoint x="173.08970976253298" y="69.03752039151713" as="targetPoint" />
          </mxGeometry>
        </mxCell>
        <mxCell id="lbXugLsnfdACKD_rXci8-237" value="" style="endArrow=classic;html=1;rounded=0;" parent="lbXugLsnfdACKD_rXci8-229" edge="1">
          <mxGeometry width="50" height="50" relative="1" as="geometry">
            <mxPoint x="92.25593667546174" y="76.8042414355628" as="sourcePoint" />
            <mxPoint x="92.25593667546174" y="-17.259380097879284" as="targetPoint" />
            <Array as="points">
              <mxPoint x="92.25593667546174" y="55.2300163132137" />
            </Array>
          </mxGeometry>
        </mxCell>
        <mxCell id="lbXugLsnfdACKD_rXci8-238" value="" style="endArrow=none;dashed=1;html=1;dashPattern=1 3;strokeWidth=2;rounded=0;exitX=0.021;exitY=0.903;exitDx=0;exitDy=0;exitPerimeter=0;entryX=0.992;entryY=0.918;entryDx=0;entryDy=0;entryPerimeter=0;" parent="lbXugLsnfdACKD_rXci8-229" source="lbXugLsnfdACKD_rXci8-230" target="lbXugLsnfdACKD_rXci8-230" edge="1">
          <mxGeometry width="50" height="50" relative="1" as="geometry">
            <mxPoint x="69.41160949868073" y="198.48287112561175" as="sourcePoint" />
            <mxPoint x="113.34300791556727" y="155.33442088091354" as="targetPoint" />
          </mxGeometry>
        </mxCell>
        <mxCell id="lbXugLsnfdACKD_rXci8-239" value="" style="shape=mxgraph.signs.safety.pedestrian_crossing;html=1;pointerEvents=1;fillColor=#000000;strokeColor=none;verticalLabelPosition=bottom;verticalAlign=top;align=center;" parent="lbXugLsnfdACKD_rXci8-229" vertex="1">
          <mxGeometry x="14.936675461741425" y="43.1484502446982" width="20.20844327176781" height="25.889070146818923" as="geometry" />
        </mxCell>
        <mxCell id="lbXugLsnfdACKD_rXci8-240" value="" style="endArrow=none;dashed=1;html=1;dashPattern=1 3;strokeWidth=2;rounded=0;entryX=0.25;entryY=1;entryDx=0;entryDy=0;exitX=1;exitY=0.75;exitDx=0;exitDy=0;" parent="lbXugLsnfdACKD_rXci8-229" edge="1">
          <mxGeometry width="50" height="50" relative="1" as="geometry">
            <mxPoint x="86.10554089709763" y="181.22349102773245" as="sourcePoint" />
            <mxPoint x="86.10554089709763" y="69.03752039151713" as="targetPoint" />
          </mxGeometry>
        </mxCell>
        <mxCell id="lbXugLsnfdACKD_rXci8-241" value="" style="endArrow=none;dashed=1;html=1;dashPattern=1 3;strokeWidth=2;rounded=0;entryX=0;entryY=0.75;entryDx=0;entryDy=0;" parent="lbXugLsnfdACKD_rXci8-229" edge="1">
          <mxGeometry width="50" height="50" relative="1" as="geometry">
            <mxPoint x="-35.145118733509236" y="21.5742251223491" as="sourcePoint" />
            <mxPoint x="35.145118733509236" y="21.5742251223491" as="targetPoint" />
            <Array as="points">
              <mxPoint y="21.5742251223491" />
            </Array>
          </mxGeometry>
        </mxCell>
        <mxCell id="lbXugLsnfdACKD_rXci8-242" value="" style="group;rotation=90;" parent="lbXugLsnfdACKD_rXci8-229" vertex="1" connectable="0">
          <mxGeometry x="102.7994722955145" width="70.29023746701847" height="69.03752039151713" as="geometry" />
        </mxCell>
        <mxCell id="lbXugLsnfdACKD_rXci8-243" value="" style="endArrow=none;html=1;rounded=0;" parent="lbXugLsnfdACKD_rXci8-242" edge="1">
          <mxGeometry width="50" height="50" relative="1" as="geometry">
            <mxPoint x="70.29023746701847" as="sourcePoint" />
            <mxPoint as="targetPoint" />
          </mxGeometry>
        </mxCell>
        <mxCell id="lbXugLsnfdACKD_rXci8-244" value="" style="endArrow=none;html=1;rounded=0;" parent="lbXugLsnfdACKD_rXci8-242" edge="1">
          <mxGeometry width="50" height="50" relative="1" as="geometry">
            <mxPoint x="69.41160949868075" y="34.51876019575857" as="sourcePoint" />
            <mxPoint y="34.51876019575857" as="targetPoint" />
          </mxGeometry>
        </mxCell>
        <mxCell id="lbXugLsnfdACKD_rXci8-245" value="" style="endArrow=none;html=1;rounded=0;" parent="lbXugLsnfdACKD_rXci8-242" edge="1">
          <mxGeometry width="50" height="50" relative="1" as="geometry">
            <mxPoint x="70.29023746701847" y="69.03752039151713" as="sourcePoint" />
            <mxPoint y="69.03752039151713" as="targetPoint" />
          </mxGeometry>
        </mxCell>
        <mxCell id="lbXugLsnfdACKD_rXci8-246" value="" style="endArrow=none;dashed=1;html=1;dashPattern=1 3;strokeWidth=2;rounded=0;exitX=1;exitY=0.75;exitDx=0;exitDy=0;" parent="lbXugLsnfdACKD_rXci8-242" edge="1">
          <mxGeometry width="50" height="50" relative="1" as="geometry">
            <mxPoint x="0.8786279683377309" y="18.98531810766721" as="sourcePoint" />
            <mxPoint x="61.50395778364116" y="18.98531810766721" as="targetPoint" />
          </mxGeometry>
        </mxCell>
        <mxCell id="lbXugLsnfdACKD_rXci8-247" value="" style="endArrow=none;dashed=1;html=1;dashPattern=1 3;strokeWidth=2;rounded=0;exitX=1;exitY=0.75;exitDx=0;exitDy=0;" parent="lbXugLsnfdACKD_rXci8-242" edge="1">
          <mxGeometry width="50" height="50" relative="1" as="geometry">
            <mxPoint x="0.8786279683377309" y="53.50407830342578" as="sourcePoint" />
            <mxPoint x="61.50395778364116" y="53.50407830342578" as="targetPoint" />
          </mxGeometry>
        </mxCell>
        <mxCell id="lbXugLsnfdACKD_rXci8-248" value="" style="shape=image;html=1;verticalAlign=top;verticalLabelPosition=bottom;labelBackgroundColor=#ffffff;imageAspect=0;aspect=fixed;image=https://cdn4.iconfinder.com/data/icons/ionicons/512/icon-ios7-timer-128.png" parent="lbXugLsnfdACKD_rXci8-229" vertex="1">
          <mxGeometry x="104.99604221635883" y="70.76345840130506" width="41.42251223491028" height="41.42251223491028" as="geometry" />
        </mxCell>
        <mxCell id="lbXugLsnfdACKD_rXci8-249" value="" style="group" parent="lbXugLsnfdACKD_rXci8-224" vertex="1" connectable="0">
          <mxGeometry x="81.71240105540896" width="70.29023746701847" height="69.03752039151713" as="geometry" />
        </mxCell>
        <mxCell id="lbXugLsnfdACKD_rXci8-250" value="" style="endArrow=none;html=1;rounded=0;" parent="lbXugLsnfdACKD_rXci8-249" edge="1">
          <mxGeometry width="50" height="50" relative="1" as="geometry">
            <mxPoint as="sourcePoint" />
            <mxPoint y="69.03752039151713" as="targetPoint" />
          </mxGeometry>
        </mxCell>
        <mxCell id="lbXugLsnfdACKD_rXci8-251" value="" style="endArrow=none;html=1;rounded=0;" parent="lbXugLsnfdACKD_rXci8-249" edge="1">
          <mxGeometry width="50" height="50" relative="1" as="geometry">
            <mxPoint x="35.145118733509236" y="0.8629690048939642" as="sourcePoint" />
            <mxPoint x="35.145118733509236" y="69.03752039151713" as="targetPoint" />
          </mxGeometry>
        </mxCell>
        <mxCell id="lbXugLsnfdACKD_rXci8-252" value="" style="endArrow=none;html=1;rounded=0;" parent="lbXugLsnfdACKD_rXci8-249" edge="1">
          <mxGeometry width="50" height="50" relative="1" as="geometry">
            <mxPoint x="70.29023746701847" as="sourcePoint" />
            <mxPoint x="70.29023746701847" y="69.03752039151713" as="targetPoint" />
          </mxGeometry>
        </mxCell>
        <mxCell id="lbXugLsnfdACKD_rXci8-253" value="" style="endArrow=none;dashed=1;html=1;dashPattern=1 3;strokeWidth=2;rounded=0;exitX=1;exitY=0.75;exitDx=0;exitDy=0;" parent="lbXugLsnfdACKD_rXci8-249" edge="1">
          <mxGeometry width="50" height="50" relative="1" as="geometry">
            <mxPoint x="19.32981530343008" y="68.17455138662318" as="sourcePoint" />
            <mxPoint x="19.32981530343008" y="8.629690048939642" as="targetPoint" />
          </mxGeometry>
        </mxCell>
        <mxCell id="lbXugLsnfdACKD_rXci8-254" value="" style="endArrow=none;dashed=1;html=1;dashPattern=1 3;strokeWidth=2;rounded=0;exitX=1;exitY=0.75;exitDx=0;exitDy=0;" parent="lbXugLsnfdACKD_rXci8-249" edge="1">
          <mxGeometry width="50" height="50" relative="1" as="geometry">
            <mxPoint x="54.47493403693932" y="68.17455138662318" as="sourcePoint" />
            <mxPoint x="54.47493403693932" y="8.629690048939642" as="targetPoint" />
          </mxGeometry>
        </mxCell>
        <mxCell id="lbXugLsnfdACKD_rXci8-255" value="" style="group" parent="lbXugLsnfdACKD_rXci8-161" vertex="1" connectable="0">
          <mxGeometry width="210.87071240105539" height="250.2610114192496" as="geometry" />
        </mxCell>
        <mxCell id="lbXugLsnfdACKD_rXci8-256" value="" style="group" parent="lbXugLsnfdACKD_rXci8-255" vertex="1" connectable="0">
          <mxGeometry x="70.29023746701847" width="70.29023746701847" height="69.03752039151713" as="geometry" />
        </mxCell>
        <mxCell id="lbXugLsnfdACKD_rXci8-257" value="" style="endArrow=none;html=1;rounded=0;" parent="lbXugLsnfdACKD_rXci8-256" edge="1">
          <mxGeometry width="50" height="50" relative="1" as="geometry">
            <mxPoint as="sourcePoint" />
            <mxPoint y="69.03752039151713" as="targetPoint" />
          </mxGeometry>
        </mxCell>
        <mxCell id="lbXugLsnfdACKD_rXci8-258" value="" style="endArrow=none;html=1;rounded=0;" parent="lbXugLsnfdACKD_rXci8-256" edge="1">
          <mxGeometry width="50" height="50" relative="1" as="geometry">
            <mxPoint x="35.145118733509236" y="0.8629690048939642" as="sourcePoint" />
            <mxPoint x="35.145118733509236" y="69.03752039151713" as="targetPoint" />
          </mxGeometry>
        </mxCell>
        <mxCell id="lbXugLsnfdACKD_rXci8-259" value="" style="endArrow=none;html=1;rounded=0;" parent="lbXugLsnfdACKD_rXci8-256" edge="1">
          <mxGeometry width="50" height="50" relative="1" as="geometry">
            <mxPoint x="70.29023746701847" as="sourcePoint" />
            <mxPoint x="70.29023746701847" y="69.03752039151713" as="targetPoint" />
          </mxGeometry>
        </mxCell>
        <mxCell id="lbXugLsnfdACKD_rXci8-260" value="" style="endArrow=none;dashed=1;html=1;dashPattern=1 3;strokeWidth=2;rounded=0;exitX=1;exitY=0.75;exitDx=0;exitDy=0;" parent="lbXugLsnfdACKD_rXci8-256" edge="1">
          <mxGeometry width="50" height="50" relative="1" as="geometry">
            <mxPoint x="19.32981530343008" y="68.17455138662318" as="sourcePoint" />
            <mxPoint x="19.32981530343008" y="8.629690048939642" as="targetPoint" />
          </mxGeometry>
        </mxCell>
        <mxCell id="lbXugLsnfdACKD_rXci8-261" value="" style="endArrow=none;dashed=1;html=1;dashPattern=1 3;strokeWidth=2;rounded=0;exitX=1;exitY=0.75;exitDx=0;exitDy=0;" parent="lbXugLsnfdACKD_rXci8-256" edge="1">
          <mxGeometry width="50" height="50" relative="1" as="geometry">
            <mxPoint x="54.47493403693932" y="68.17455138662318" as="sourcePoint" />
            <mxPoint x="54.47493403693932" y="8.629690048939642" as="targetPoint" />
          </mxGeometry>
        </mxCell>
        <mxCell id="lbXugLsnfdACKD_rXci8-262" value="" style="whiteSpace=wrap;html=1;aspect=fixed;strokeColor=#000000;fillColor=#d2c6c6;" parent="lbXugLsnfdACKD_rXci8-255" vertex="1">
          <mxGeometry x="70.29023746701847" y="69.03752039151713" width="69.03752039151713" height="69.03752039151713" as="geometry" />
        </mxCell>
        <mxCell id="lbXugLsnfdACKD_rXci8-263" value="" style="endArrow=none;html=1;rounded=0;entryX=0;entryY=1;entryDx=0;entryDy=0;" parent="lbXugLsnfdACKD_rXci8-255" target="lbXugLsnfdACKD_rXci8-262" edge="1">
          <mxGeometry width="50" height="50" relative="1" as="geometry">
            <mxPoint x="70.29023746701847" y="250.2610114192496" as="sourcePoint" />
            <mxPoint x="351.45118733509236" y="207.1125611745514" as="targetPoint" />
          </mxGeometry>
        </mxCell>
        <mxCell id="lbXugLsnfdACKD_rXci8-264" value="" style="endArrow=none;html=1;rounded=0;entryX=1;entryY=1;entryDx=0;entryDy=0;" parent="lbXugLsnfdACKD_rXci8-255" target="lbXugLsnfdACKD_rXci8-262" edge="1">
          <mxGeometry width="50" height="50" relative="1" as="geometry">
            <mxPoint x="140.58047493403694" y="250.2610114192496" as="sourcePoint" />
            <mxPoint x="140.58047493403694" y="138.93800978792822" as="targetPoint" />
            <Array as="points">
              <mxPoint x="140.58047493403694" y="233.86460032626428" />
            </Array>
          </mxGeometry>
        </mxCell>
        <mxCell id="lbXugLsnfdACKD_rXci8-265" value="" style="endArrow=none;html=1;rounded=0;entryX=0.5;entryY=1;entryDx=0;entryDy=0;" parent="lbXugLsnfdACKD_rXci8-255" target="lbXugLsnfdACKD_rXci8-262" edge="1">
          <mxGeometry width="50" height="50" relative="1" as="geometry">
            <mxPoint x="105.43535620052769" y="250.2610114192496" as="sourcePoint" />
            <mxPoint x="105.43535620052769" y="146.7047308319739" as="targetPoint" />
            <Array as="points">
              <mxPoint x="105.43535620052769" y="233.0016313213703" />
            </Array>
          </mxGeometry>
        </mxCell>
        <mxCell id="lbXugLsnfdACKD_rXci8-266" value="" style="endArrow=none;html=1;rounded=0;" parent="lbXugLsnfdACKD_rXci8-255" edge="1">
          <mxGeometry width="50" height="50" relative="1" as="geometry">
            <mxPoint y="138.07504078303427" as="sourcePoint" />
            <mxPoint x="70.29023746701847" y="138.07504078303427" as="targetPoint" />
          </mxGeometry>
        </mxCell>
        <mxCell id="lbXugLsnfdACKD_rXci8-267" value="" style="shape=image;html=1;verticalAlign=top;verticalLabelPosition=bottom;labelBackgroundColor=#ffffff;imageAspect=0;aspect=fixed;image=https://cdn4.iconfinder.com/data/icons/transportation-190/1000/transport_automobile_auto_sedan_car_transportation_vehicle-128.png;rotation=90;" parent="lbXugLsnfdACKD_rXci8-255" vertex="1">
          <mxGeometry x="114.22163588390501" y="215.74225122349102" width="34.51876019575857" height="34.51876019575857" as="geometry" />
        </mxCell>
        <mxCell id="lbXugLsnfdACKD_rXci8-268" value="" style="endArrow=none;html=1;rounded=0;exitX=1;exitY=0;exitDx=0;exitDy=0;" parent="lbXugLsnfdACKD_rXci8-255" source="lbXugLsnfdACKD_rXci8-262" edge="1">
          <mxGeometry width="50" height="50" relative="1" as="geometry">
            <mxPoint x="175.72559366754618" y="77.66721044045677" as="sourcePoint" />
            <mxPoint x="210.87071240105539" y="69.03752039151713" as="targetPoint" />
          </mxGeometry>
        </mxCell>
        <mxCell id="lbXugLsnfdACKD_rXci8-269" value="" style="endArrow=none;html=1;rounded=0;" parent="lbXugLsnfdACKD_rXci8-255" edge="1">
          <mxGeometry width="50" height="50" relative="1" as="geometry">
            <mxPoint y="69.03752039151713" as="sourcePoint" />
            <mxPoint x="70.29023746701847" y="69.03752039151713" as="targetPoint" />
          </mxGeometry>
        </mxCell>
        <mxCell id="lbXugLsnfdACKD_rXci8-270" value="" style="endArrow=none;html=1;rounded=0;exitX=1;exitY=1;exitDx=0;exitDy=0;" parent="lbXugLsnfdACKD_rXci8-255" source="lbXugLsnfdACKD_rXci8-262" edge="1">
          <mxGeometry width="50" height="50" relative="1" as="geometry">
            <mxPoint x="351.45118733509236" y="276.15008156606854" as="sourcePoint" />
            <mxPoint x="210.87071240105539" y="138.07504078303427" as="targetPoint" />
          </mxGeometry>
        </mxCell>
        <mxCell id="lbXugLsnfdACKD_rXci8-271" value="" style="endArrow=classic;html=1;rounded=0;" parent="lbXugLsnfdACKD_rXci8-255" edge="1">
          <mxGeometry width="50" height="50" relative="1" as="geometry">
            <mxPoint x="131.7941952506596" y="155.33442088091354" as="sourcePoint" />
            <mxPoint x="131.7941952506596" y="51.77814029363785" as="targetPoint" />
            <Array as="points">
              <mxPoint x="131.7941952506596" y="133.76019575856444" />
            </Array>
          </mxGeometry>
        </mxCell>
        <mxCell id="lbXugLsnfdACKD_rXci8-272" value="" style="endArrow=none;dashed=1;html=1;dashPattern=1 3;strokeWidth=2;rounded=0;entryX=0.75;entryY=1;entryDx=0;entryDy=0;exitX=1;exitY=0.75;exitDx=0;exitDy=0;" parent="lbXugLsnfdACKD_rXci8-255" source="lbXugLsnfdACKD_rXci8-267" target="lbXugLsnfdACKD_rXci8-262" edge="1">
          <mxGeometry width="50" height="50" relative="1" as="geometry">
            <mxPoint x="430.52770448548813" y="155.33442088091354" as="sourcePoint" />
            <mxPoint x="474.45910290237464" y="112.18597063621533" as="targetPoint" />
          </mxGeometry>
        </mxCell>
        <mxCell id="lbXugLsnfdACKD_rXci8-273" value="" style="endArrow=none;dashed=1;html=1;dashPattern=1 3;strokeWidth=2;rounded=0;entryX=0;entryY=0.75;entryDx=0;entryDy=0;" parent="lbXugLsnfdACKD_rXci8-255" target="lbXugLsnfdACKD_rXci8-262" edge="1">
          <mxGeometry width="50" height="50" relative="1" as="geometry">
            <mxPoint y="120.81566068515498" as="sourcePoint" />
            <mxPoint x="96.64907651715039" y="146.7047308319739" as="targetPoint" />
            <Array as="points">
              <mxPoint x="35.145118733509236" y="120.81566068515498" />
            </Array>
          </mxGeometry>
        </mxCell>
        <mxCell id="lbXugLsnfdACKD_rXci8-274" value="" style="endArrow=none;dashed=1;html=1;dashPattern=1 3;strokeWidth=2;rounded=0;entryX=0;entryY=0.75;entryDx=0;entryDy=0;" parent="lbXugLsnfdACKD_rXci8-255" edge="1">
          <mxGeometry width="50" height="50" relative="1" as="geometry">
            <mxPoint x="1.7572559366754616" y="91.4747145187602" as="sourcePoint" />
            <mxPoint x="72.04749340369393" y="91.4747145187602" as="targetPoint" />
            <Array as="points">
              <mxPoint x="36.90237467018469" y="91.4747145187602" />
            </Array>
          </mxGeometry>
        </mxCell>
        <mxCell id="lbXugLsnfdACKD_rXci8-275" value="" style="group;rotation=90;" parent="lbXugLsnfdACKD_rXci8-255" vertex="1" connectable="0">
          <mxGeometry x="140.58047493403694" y="69.03752039151713" width="70.29023746701847" height="69.03752039151713" as="geometry" />
        </mxCell>
        <mxCell id="lbXugLsnfdACKD_rXci8-276" value="" style="endArrow=none;html=1;rounded=0;" parent="lbXugLsnfdACKD_rXci8-275" edge="1">
          <mxGeometry width="50" height="50" relative="1" as="geometry">
            <mxPoint x="70.29023746701847" as="sourcePoint" />
            <mxPoint as="targetPoint" />
          </mxGeometry>
        </mxCell>
        <mxCell id="lbXugLsnfdACKD_rXci8-277" value="" style="endArrow=none;html=1;rounded=0;" parent="lbXugLsnfdACKD_rXci8-275" edge="1">
          <mxGeometry width="50" height="50" relative="1" as="geometry">
            <mxPoint x="69.41160949868075" y="34.51876019575857" as="sourcePoint" />
            <mxPoint y="34.51876019575857" as="targetPoint" />
          </mxGeometry>
        </mxCell>
        <mxCell id="lbXugLsnfdACKD_rXci8-278" value="" style="endArrow=none;html=1;rounded=0;" parent="lbXugLsnfdACKD_rXci8-275" edge="1">
          <mxGeometry width="50" height="50" relative="1" as="geometry">
            <mxPoint x="70.29023746701847" y="69.03752039151713" as="sourcePoint" />
            <mxPoint y="69.03752039151713" as="targetPoint" />
          </mxGeometry>
        </mxCell>
        <mxCell id="lbXugLsnfdACKD_rXci8-279" value="" style="endArrow=none;dashed=1;html=1;dashPattern=1 3;strokeWidth=2;rounded=0;exitX=1;exitY=0.75;exitDx=0;exitDy=0;" parent="lbXugLsnfdACKD_rXci8-275" edge="1">
          <mxGeometry width="50" height="50" relative="1" as="geometry">
            <mxPoint x="0.8786279683377309" y="18.98531810766721" as="sourcePoint" />
            <mxPoint x="61.50395778364116" y="18.98531810766721" as="targetPoint" />
          </mxGeometry>
        </mxCell>
        <mxCell id="lbXugLsnfdACKD_rXci8-280" value="" style="endArrow=none;dashed=1;html=1;dashPattern=1 3;strokeWidth=2;rounded=0;exitX=1;exitY=0.75;exitDx=0;exitDy=0;" parent="lbXugLsnfdACKD_rXci8-275" edge="1">
          <mxGeometry width="50" height="50" relative="1" as="geometry">
            <mxPoint x="0.8786279683377309" y="53.50407830342578" as="sourcePoint" />
            <mxPoint x="61.50395778364116" y="53.50407830342578" as="targetPoint" />
          </mxGeometry>
        </mxCell>
        <mxCell id="lbXugLsnfdACKD_rXci8-281" value="" style="endArrow=none;html=1;rounded=0;" parent="lbXugLsnfdACKD_rXci8-255" edge="1">
          <mxGeometry width="50" height="50" relative="1" as="geometry">
            <mxPoint x="8.786279683377309" y="103.14205546492659" as="sourcePoint" />
            <mxPoint x="70.29023746701847" y="103.14205546492659" as="targetPoint" />
          </mxGeometry>
        </mxCell>
        <mxCell id="lbXugLsnfdACKD_rXci8-282" value="" style="group" parent="lbXugLsnfdACKD_rXci8-161" vertex="1" connectable="0">
          <mxGeometry x="299.6121372031662" width="70.29023746701847" height="69.03752039151713" as="geometry" />
        </mxCell>
        <mxCell id="lbXugLsnfdACKD_rXci8-283" value="" style="endArrow=none;html=1;rounded=0;" parent="lbXugLsnfdACKD_rXci8-282" edge="1">
          <mxGeometry width="50" height="50" relative="1" as="geometry">
            <mxPoint as="sourcePoint" />
            <mxPoint y="69.03752039151713" as="targetPoint" />
          </mxGeometry>
        </mxCell>
        <mxCell id="lbXugLsnfdACKD_rXci8-284" value="" style="endArrow=none;html=1;rounded=0;" parent="lbXugLsnfdACKD_rXci8-282" edge="1">
          <mxGeometry width="50" height="50" relative="1" as="geometry">
            <mxPoint x="35.145118733509236" y="0.8629690048939642" as="sourcePoint" />
            <mxPoint x="35.145118733509236" y="69.03752039151713" as="targetPoint" />
          </mxGeometry>
        </mxCell>
        <mxCell id="lbXugLsnfdACKD_rXci8-285" value="" style="endArrow=none;html=1;rounded=0;" parent="lbXugLsnfdACKD_rXci8-282" edge="1">
          <mxGeometry width="50" height="50" relative="1" as="geometry">
            <mxPoint x="70.29023746701847" as="sourcePoint" />
            <mxPoint x="70.29023746701847" y="69.03752039151713" as="targetPoint" />
          </mxGeometry>
        </mxCell>
        <mxCell id="lbXugLsnfdACKD_rXci8-286" value="" style="endArrow=none;dashed=1;html=1;dashPattern=1 3;strokeWidth=2;rounded=0;exitX=1;exitY=0.75;exitDx=0;exitDy=0;" parent="lbXugLsnfdACKD_rXci8-282" edge="1">
          <mxGeometry width="50" height="50" relative="1" as="geometry">
            <mxPoint x="19.32981530343008" y="68.17455138662318" as="sourcePoint" />
            <mxPoint x="19.32981530343008" y="8.629690048939642" as="targetPoint" />
          </mxGeometry>
        </mxCell>
        <mxCell id="lbXugLsnfdACKD_rXci8-287" value="" style="endArrow=none;dashed=1;html=1;dashPattern=1 3;strokeWidth=2;rounded=0;exitX=1;exitY=0.75;exitDx=0;exitDy=0;" parent="lbXugLsnfdACKD_rXci8-282" edge="1">
          <mxGeometry width="50" height="50" relative="1" as="geometry">
            <mxPoint x="54.47493403693932" y="68.17455138662318" as="sourcePoint" />
            <mxPoint x="54.47493403693932" y="8.629690048939642" as="targetPoint" />
          </mxGeometry>
        </mxCell>
        <mxCell id="lbXugLsnfdACKD_rXci8-288" value="" style="group" parent="lbXugLsnfdACKD_rXci8-161" vertex="1" connectable="0">
          <mxGeometry x="229.32189973614774" y="68.17455138662316" width="210.87071240105539" height="181.22349102773245" as="geometry" />
        </mxCell>
        <mxCell id="lbXugLsnfdACKD_rXci8-289" value="" style="whiteSpace=wrap;html=1;aspect=fixed;fillColor=#d2c6c6;strokeColor=#000000;" parent="lbXugLsnfdACKD_rXci8-288" vertex="1">
          <mxGeometry x="70.29023746701847" width="69.03752039151712" height="69.03752039151712" as="geometry" />
        </mxCell>
        <mxCell id="lbXugLsnfdACKD_rXci8-290" value="" style="endArrow=none;html=1;rounded=0;entryX=0;entryY=1;entryDx=0;entryDy=0;" parent="lbXugLsnfdACKD_rXci8-288" target="lbXugLsnfdACKD_rXci8-289" edge="1">
          <mxGeometry width="50" height="50" relative="1" as="geometry">
            <mxPoint x="70.29023746701847" y="181.22349102773245" as="sourcePoint" />
            <mxPoint x="351.45118733509236" y="138.07504078303424" as="targetPoint" />
          </mxGeometry>
        </mxCell>
        <mxCell id="lbXugLsnfdACKD_rXci8-291" value="" style="endArrow=none;html=1;rounded=0;entryX=1;entryY=1;entryDx=0;entryDy=0;" parent="lbXugLsnfdACKD_rXci8-288" target="lbXugLsnfdACKD_rXci8-289" edge="1">
          <mxGeometry width="50" height="50" relative="1" as="geometry">
            <mxPoint x="140.58047493403694" y="181.22349102773245" as="sourcePoint" />
            <mxPoint x="140.58047493403694" y="69.90048939641109" as="targetPoint" />
            <Array as="points">
              <mxPoint x="140.58047493403694" y="164.82707993474713" />
            </Array>
          </mxGeometry>
        </mxCell>
        <mxCell id="lbXugLsnfdACKD_rXci8-292" value="" style="endArrow=none;html=1;rounded=0;entryX=0.5;entryY=1;entryDx=0;entryDy=0;" parent="lbXugLsnfdACKD_rXci8-288" target="lbXugLsnfdACKD_rXci8-289" edge="1">
          <mxGeometry width="50" height="50" relative="1" as="geometry">
            <mxPoint x="105.43535620052769" y="182.0864600326264" as="sourcePoint" />
            <mxPoint x="105.43535620052769" y="77.66721044045676" as="targetPoint" />
            <Array as="points" />
          </mxGeometry>
        </mxCell>
        <mxCell id="lbXugLsnfdACKD_rXci8-293" value="" style="endArrow=none;html=1;rounded=0;" parent="lbXugLsnfdACKD_rXci8-288" edge="1">
          <mxGeometry width="50" height="50" relative="1" as="geometry">
            <mxPoint y="69.03752039151712" as="sourcePoint" />
            <mxPoint x="70.29023746701847" y="69.03752039151712" as="targetPoint" />
          </mxGeometry>
        </mxCell>
        <mxCell id="lbXugLsnfdACKD_rXci8-294" value="" style="shape=image;html=1;verticalAlign=top;verticalLabelPosition=bottom;labelBackgroundColor=#ffffff;imageAspect=0;aspect=fixed;image=https://cdn4.iconfinder.com/data/icons/transportation-190/1000/transport_automobile_auto_sedan_car_transportation_vehicle-128.png;rotation=90;" parent="lbXugLsnfdACKD_rXci8-288" vertex="1">
          <mxGeometry x="99.28496042216358" y="83.70799347471451" width="34.51876019575856" height="34.51876019575856" as="geometry" />
        </mxCell>
        <mxCell id="lbXugLsnfdACKD_rXci8-295" value="" style="shape=image;html=1;verticalAlign=top;verticalLabelPosition=bottom;labelBackgroundColor=#ffffff;imageAspect=0;aspect=fixed;image=https://cdn4.iconfinder.com/data/icons/transportation-190/1000/transport_automobile_auto_sedan_car_transportation_vehicle-128.png;rotation=90;" parent="lbXugLsnfdACKD_rXci8-288" vertex="1">
          <mxGeometry x="119.4934036939314" y="149.29363784665577" width="31.929853181076666" height="31.929853181076666" as="geometry" />
        </mxCell>
        <mxCell id="lbXugLsnfdACKD_rXci8-296" value="" style="endArrow=none;html=1;rounded=0;exitX=1;exitY=0;exitDx=0;exitDy=0;" parent="lbXugLsnfdACKD_rXci8-288" source="lbXugLsnfdACKD_rXci8-289" edge="1">
          <mxGeometry width="50" height="50" relative="1" as="geometry">
            <mxPoint x="175.72559366754618" y="8.62969004893964" as="sourcePoint" />
            <mxPoint x="210.87071240105539" as="targetPoint" />
          </mxGeometry>
        </mxCell>
        <mxCell id="lbXugLsnfdACKD_rXci8-297" value="" style="endArrow=none;html=1;rounded=0;" parent="lbXugLsnfdACKD_rXci8-288" edge="1">
          <mxGeometry width="50" height="50" relative="1" as="geometry">
            <mxPoint as="sourcePoint" />
            <mxPoint x="70.29023746701847" as="targetPoint" />
          </mxGeometry>
        </mxCell>
        <mxCell id="lbXugLsnfdACKD_rXci8-298" value="" style="endArrow=none;html=1;rounded=0;exitX=1;exitY=1;exitDx=0;exitDy=0;" parent="lbXugLsnfdACKD_rXci8-288" source="lbXugLsnfdACKD_rXci8-289" edge="1">
          <mxGeometry width="50" height="50" relative="1" as="geometry">
            <mxPoint x="351.45118733509236" y="207.11256117455136" as="sourcePoint" />
            <mxPoint x="210.87071240105539" y="69.03752039151712" as="targetPoint" />
          </mxGeometry>
        </mxCell>
        <mxCell id="lbXugLsnfdACKD_rXci8-299" value="" style="curved=1;endArrow=classic;html=1;rounded=0;exitX=0;exitY=0.5;exitDx=0;exitDy=0;" parent="lbXugLsnfdACKD_rXci8-288" edge="1">
          <mxGeometry width="50" height="50" relative="1" as="geometry">
            <mxPoint x="115.10026385224273" y="83.70799347471451" as="sourcePoint" />
            <mxPoint x="66.77572559366754" y="26.752039151712886" as="targetPoint" />
            <Array as="points">
              <mxPoint x="115.10026385224273" y="75.94127243066883" />
              <mxPoint x="110.70712401055408" y="44.011419249592166" />
              <mxPoint x="101.92084432717678" y="35.38172920065252" />
              <mxPoint x="84.34828496042216" y="26.752039151712886" />
            </Array>
          </mxGeometry>
        </mxCell>
        <mxCell id="lbXugLsnfdACKD_rXci8-300" value="" style="shape=image;html=1;verticalAlign=top;verticalLabelPosition=bottom;labelBackgroundColor=#ffffff;imageAspect=0;aspect=fixed;image=https://cdn2.iconfinder.com/data/icons/wanpix-construction-worker-1/64/Artboard_21-128.png" parent="lbXugLsnfdACKD_rXci8-288" vertex="1">
          <mxGeometry x="123.88654353562005" y="115.63784665579118" width="17.25938009787928" height="17.25938009787928" as="geometry" />
        </mxCell>
        <mxCell id="lbXugLsnfdACKD_rXci8-301" value="" style="endArrow=none;dashed=1;html=1;dashPattern=1 3;strokeWidth=2;rounded=0;entryX=0.25;entryY=1;entryDx=0;entryDy=0;exitX=1;exitY=0.75;exitDx=0;exitDy=0;" parent="lbXugLsnfdACKD_rXci8-288" edge="1">
          <mxGeometry width="50" height="50" relative="1" as="geometry">
            <mxPoint x="86.98416886543535" y="180.36052202283847" as="sourcePoint" />
            <mxPoint x="86.98416886543535" y="68.17455138662315" as="targetPoint" />
          </mxGeometry>
        </mxCell>
        <mxCell id="lbXugLsnfdACKD_rXci8-302" value="" style="group;rotation=90;" parent="lbXugLsnfdACKD_rXci8-288" vertex="1" connectable="0">
          <mxGeometry x="140.58047493403694" width="70.29023746701847" height="69.03752039151712" as="geometry" />
        </mxCell>
        <mxCell id="lbXugLsnfdACKD_rXci8-303" value="" style="endArrow=none;html=1;rounded=0;" parent="lbXugLsnfdACKD_rXci8-302" edge="1">
          <mxGeometry width="50" height="50" relative="1" as="geometry">
            <mxPoint x="70.29023746701847" as="sourcePoint" />
            <mxPoint as="targetPoint" />
          </mxGeometry>
        </mxCell>
        <mxCell id="lbXugLsnfdACKD_rXci8-304" value="" style="endArrow=none;html=1;rounded=0;" parent="lbXugLsnfdACKD_rXci8-302" edge="1">
          <mxGeometry width="50" height="50" relative="1" as="geometry">
            <mxPoint x="69.41160949868075" y="34.51876019575856" as="sourcePoint" />
            <mxPoint y="34.51876019575856" as="targetPoint" />
          </mxGeometry>
        </mxCell>
        <mxCell id="lbXugLsnfdACKD_rXci8-305" value="" style="endArrow=none;html=1;rounded=0;" parent="lbXugLsnfdACKD_rXci8-302" edge="1">
          <mxGeometry width="50" height="50" relative="1" as="geometry">
            <mxPoint x="70.29023746701847" y="69.03752039151712" as="sourcePoint" />
            <mxPoint y="69.03752039151712" as="targetPoint" />
          </mxGeometry>
        </mxCell>
        <mxCell id="lbXugLsnfdACKD_rXci8-306" value="" style="endArrow=none;dashed=1;html=1;dashPattern=1 3;strokeWidth=2;rounded=0;exitX=1;exitY=0.75;exitDx=0;exitDy=0;" parent="lbXugLsnfdACKD_rXci8-302" edge="1">
          <mxGeometry width="50" height="50" relative="1" as="geometry">
            <mxPoint x="0.8786279683377309" y="18.985318107667208" as="sourcePoint" />
            <mxPoint x="61.50395778364116" y="18.985318107667208" as="targetPoint" />
          </mxGeometry>
        </mxCell>
        <mxCell id="lbXugLsnfdACKD_rXci8-307" value="" style="endArrow=none;dashed=1;html=1;dashPattern=1 3;strokeWidth=2;rounded=0;exitX=1;exitY=0.75;exitDx=0;exitDy=0;" parent="lbXugLsnfdACKD_rXci8-302" edge="1">
          <mxGeometry width="50" height="50" relative="1" as="geometry">
            <mxPoint x="0.8786279683377309" y="53.50407830342577" as="sourcePoint" />
            <mxPoint x="61.50395778364116" y="53.50407830342577" as="targetPoint" />
          </mxGeometry>
        </mxCell>
        <mxCell id="lbXugLsnfdACKD_rXci8-308" value="" style="endArrow=none;html=1;rounded=0;" parent="lbXugLsnfdACKD_rXci8-288" edge="1">
          <mxGeometry width="50" height="50" relative="1" as="geometry">
            <mxPoint x="8.786279683377309" y="34.104535073409444" as="sourcePoint" />
            <mxPoint x="70.29023746701847" y="34.104535073409444" as="targetPoint" />
          </mxGeometry>
        </mxCell>
        <mxCell id="lbXugLsnfdACKD_rXci8-309" value="" style="endArrow=none;dashed=1;html=1;dashPattern=1 3;strokeWidth=2;rounded=0;entryX=0.25;entryY=1;entryDx=0;entryDy=0;exitX=1;exitY=0.75;exitDx=0;exitDy=0;" parent="lbXugLsnfdACKD_rXci8-161" edge="1">
          <mxGeometry width="50" height="50" relative="1" as="geometry">
            <mxPoint x="352.32981530343005" y="251.9869494290375" as="sourcePoint" />
            <mxPoint x="352.32981530343005" y="139.80097879282218" as="targetPoint" />
          </mxGeometry>
        </mxCell>
        <mxCell id="lbXugLsnfdACKD_rXci8-310" value="" style="endArrow=none;dashed=1;html=1;dashPattern=1 3;strokeWidth=2;rounded=0;entryX=0.25;entryY=1;entryDx=0;entryDy=0;exitX=1;exitY=0.75;exitDx=0;exitDy=0;" parent="lbXugLsnfdACKD_rXci8-161" edge="1">
          <mxGeometry width="50" height="50" relative="1" as="geometry">
            <mxPoint x="90.49868073878628" y="529" as="sourcePoint" />
            <mxPoint x="90.49868073878628" y="416.81402936378464" as="targetPoint" />
          </mxGeometry>
        </mxCell>
        <mxCell id="lbXugLsnfdACKD_rXci8-311" value="" style="endArrow=none;dashed=1;html=1;dashPattern=1 3;strokeWidth=2;rounded=0;entryX=0.25;entryY=1;entryDx=0;entryDy=0;exitX=1;exitY=0.75;exitDx=0;exitDy=0;" parent="lbXugLsnfdACKD_rXci8-161" edge="1">
          <mxGeometry width="50" height="50" relative="1" as="geometry">
            <mxPoint x="317.18469656992085" y="528.137030995106" as="sourcePoint" />
            <mxPoint x="317.18469656992085" y="415.9510603588907" as="targetPoint" />
          </mxGeometry>
        </mxCell>
        <mxCell id="FgRab_RMm033HroBVEti-133" value="" style="endArrow=none;html=1;rounded=0;" parent="1" edge="1">
          <mxGeometry width="50" height="50" relative="1" as="geometry">
            <mxPoint x="660" y="80" as="sourcePoint" />
            <mxPoint x="743" y="80" as="targetPoint" />
          </mxGeometry>
        </mxCell>
        <mxCell id="FgRab_RMm033HroBVEti-215" value="" style="group" parent="1" vertex="1" connectable="0">
          <mxGeometry x="393" y="280" width="242" height="289" as="geometry" />
        </mxCell>
        <mxCell id="FgRab_RMm033HroBVEti-132" value="" style="group" parent="FgRab_RMm033HroBVEti-215" vertex="1" connectable="0">
          <mxGeometry y="79" width="242" height="210" as="geometry" />
        </mxCell>
        <mxCell id="FgRab_RMm033HroBVEti-109" value="" style="whiteSpace=wrap;html=1;aspect=fixed;strokeColor=#000000;fillColor=#d2c6c6;" parent="FgRab_RMm033HroBVEti-132" vertex="1">
          <mxGeometry x="80" width="80" height="80" as="geometry" />
        </mxCell>
        <mxCell id="FgRab_RMm033HroBVEti-110" value="" style="endArrow=none;html=1;rounded=0;entryX=0;entryY=1;entryDx=0;entryDy=0;" parent="FgRab_RMm033HroBVEti-132" target="FgRab_RMm033HroBVEti-109" edge="1">
          <mxGeometry width="50" height="50" relative="1" as="geometry">
            <mxPoint x="80" y="210" as="sourcePoint" />
            <mxPoint x="400" y="160" as="targetPoint" />
          </mxGeometry>
        </mxCell>
        <mxCell id="FgRab_RMm033HroBVEti-111" value="" style="endArrow=none;html=1;rounded=0;entryX=1;entryY=1;entryDx=0;entryDy=0;" parent="FgRab_RMm033HroBVEti-132" target="FgRab_RMm033HroBVEti-109" edge="1">
          <mxGeometry width="50" height="50" relative="1" as="geometry">
            <mxPoint x="160" y="210" as="sourcePoint" />
            <mxPoint x="160" y="81" as="targetPoint" />
            <Array as="points">
              <mxPoint x="160" y="191" />
            </Array>
          </mxGeometry>
        </mxCell>
        <mxCell id="FgRab_RMm033HroBVEti-112" value="" style="endArrow=none;html=1;rounded=0;entryX=0.5;entryY=1;entryDx=0;entryDy=0;exitX=1;exitY=0.25;exitDx=0;exitDy=0;" parent="FgRab_RMm033HroBVEti-132" target="FgRab_RMm033HroBVEti-109" edge="1">
          <mxGeometry width="50" height="50" relative="1" as="geometry">
            <mxPoint x="120" y="210" as="sourcePoint" />
            <mxPoint x="120" y="90" as="targetPoint" />
            <Array as="points">
              <mxPoint x="119.5" y="190" />
            </Array>
          </mxGeometry>
        </mxCell>
        <mxCell id="FgRab_RMm033HroBVEti-113" value="" style="endArrow=none;html=1;rounded=0;" parent="FgRab_RMm033HroBVEti-132" edge="1">
          <mxGeometry width="50" height="50" relative="1" as="geometry">
            <mxPoint y="80" as="sourcePoint" />
            <mxPoint x="80" y="80" as="targetPoint" />
          </mxGeometry>
        </mxCell>
        <mxCell id="FgRab_RMm033HroBVEti-115" value="" style="endArrow=none;html=1;rounded=0;exitX=1;exitY=0;exitDx=0;exitDy=0;" parent="FgRab_RMm033HroBVEti-132" source="FgRab_RMm033HroBVEti-109" edge="1">
          <mxGeometry width="50" height="50" relative="1" as="geometry">
            <mxPoint x="200" y="10" as="sourcePoint" />
            <mxPoint x="240" as="targetPoint" />
          </mxGeometry>
        </mxCell>
        <mxCell id="FgRab_RMm033HroBVEti-116" value="" style="endArrow=none;html=1;rounded=0;" parent="FgRab_RMm033HroBVEti-132" edge="1">
          <mxGeometry width="50" height="50" relative="1" as="geometry">
            <mxPoint as="sourcePoint" />
            <mxPoint x="80" as="targetPoint" />
          </mxGeometry>
        </mxCell>
        <mxCell id="FgRab_RMm033HroBVEti-117" value="" style="endArrow=none;html=1;rounded=0;exitX=1;exitY=1;exitDx=0;exitDy=0;" parent="FgRab_RMm033HroBVEti-132" source="FgRab_RMm033HroBVEti-109" edge="1">
          <mxGeometry width="50" height="50" relative="1" as="geometry">
            <mxPoint x="400" y="240" as="sourcePoint" />
            <mxPoint x="240" y="80" as="targetPoint" />
          </mxGeometry>
        </mxCell>
        <mxCell id="FgRab_RMm033HroBVEti-118" value="" style="endArrow=none;dashed=1;html=1;dashPattern=1 3;strokeWidth=2;rounded=0;entryX=0.25;entryY=1;entryDx=0;entryDy=0;exitX=1;exitY=0.75;exitDx=0;exitDy=0;" parent="FgRab_RMm033HroBVEti-132" edge="1">
          <mxGeometry width="50" height="50" relative="1" as="geometry">
            <mxPoint x="142" y="210" as="sourcePoint" />
            <mxPoint x="141.99999999999977" y="80" as="targetPoint" />
          </mxGeometry>
        </mxCell>
        <mxCell id="FgRab_RMm033HroBVEti-119" value="" style="endArrow=none;dashed=1;html=1;dashPattern=1 3;strokeWidth=2;rounded=0;entryX=0;entryY=0.75;entryDx=0;entryDy=0;" parent="FgRab_RMm033HroBVEti-132" target="FgRab_RMm033HroBVEti-109" edge="1">
          <mxGeometry width="50" height="50" relative="1" as="geometry">
            <mxPoint y="60" as="sourcePoint" />
            <mxPoint x="110" y="90" as="targetPoint" />
            <Array as="points">
              <mxPoint x="40" y="60" />
            </Array>
          </mxGeometry>
        </mxCell>
        <mxCell id="FgRab_RMm033HroBVEti-120" value="" style="endArrow=none;dashed=1;html=1;dashPattern=1 3;strokeWidth=2;rounded=0;entryX=0;entryY=0.75;entryDx=0;entryDy=0;" parent="FgRab_RMm033HroBVEti-132" edge="1">
          <mxGeometry width="50" height="50" relative="1" as="geometry">
            <mxPoint x="2" y="26" as="sourcePoint" />
            <mxPoint x="82" y="26" as="targetPoint" />
            <Array as="points">
              <mxPoint x="42" y="26" />
            </Array>
          </mxGeometry>
        </mxCell>
        <mxCell id="FgRab_RMm033HroBVEti-122" value="" style="curved=1;endArrow=classic;html=1;rounded=0;" parent="FgRab_RMm033HroBVEti-132" edge="1">
          <mxGeometry width="50" height="50" relative="1" as="geometry">
            <mxPoint x="134" y="92" as="sourcePoint" />
            <mxPoint x="67" y="34" as="targetPoint" />
            <Array as="points">
              <mxPoint x="134" y="81" />
              <mxPoint x="134" y="81" />
              <mxPoint x="134" y="81" />
              <mxPoint x="134" y="61" />
              <mxPoint x="127" y="41" />
              <mxPoint x="107" y="34" />
            </Array>
          </mxGeometry>
        </mxCell>
        <mxCell id="FgRab_RMm033HroBVEti-123" value="" style="shape=image;html=1;verticalAlign=top;verticalLabelPosition=bottom;labelBackgroundColor=#ffffff;imageAspect=0;aspect=fixed;image=https://cdn4.iconfinder.com/data/icons/transportation-190/1000/transport_automobile_auto_sedan_car_transportation_vehicle-128.png;rotation=90;" parent="FgRab_RMm033HroBVEti-132" vertex="1">
          <mxGeometry x="113" y="130" width="40" height="40" as="geometry" />
        </mxCell>
        <mxCell id="FgRab_RMm033HroBVEti-198" value="" style="group;rotation=90;" parent="FgRab_RMm033HroBVEti-132" vertex="1" connectable="0">
          <mxGeometry x="160" width="80" height="80" as="geometry" />
        </mxCell>
        <mxCell id="FgRab_RMm033HroBVEti-199" value="" style="endArrow=none;html=1;rounded=0;" parent="FgRab_RMm033HroBVEti-198" edge="1">
          <mxGeometry width="50" height="50" relative="1" as="geometry">
            <mxPoint x="80" as="sourcePoint" />
            <mxPoint as="targetPoint" />
          </mxGeometry>
        </mxCell>
        <mxCell id="FgRab_RMm033HroBVEti-200" value="" style="endArrow=none;html=1;rounded=0;" parent="FgRab_RMm033HroBVEti-198" edge="1">
          <mxGeometry width="50" height="50" relative="1" as="geometry">
            <mxPoint x="79" y="40" as="sourcePoint" />
            <mxPoint y="40" as="targetPoint" />
          </mxGeometry>
        </mxCell>
        <mxCell id="FgRab_RMm033HroBVEti-201" value="" style="endArrow=none;html=1;rounded=0;" parent="FgRab_RMm033HroBVEti-198" edge="1">
          <mxGeometry width="50" height="50" relative="1" as="geometry">
            <mxPoint x="80" y="80" as="sourcePoint" />
            <mxPoint y="80" as="targetPoint" />
          </mxGeometry>
        </mxCell>
        <mxCell id="FgRab_RMm033HroBVEti-202" value="" style="endArrow=none;dashed=1;html=1;dashPattern=1 3;strokeWidth=2;rounded=0;exitX=1;exitY=0.75;exitDx=0;exitDy=0;" parent="FgRab_RMm033HroBVEti-198" edge="1">
          <mxGeometry width="50" height="50" relative="1" as="geometry">
            <mxPoint x="1" y="22" as="sourcePoint" />
            <mxPoint x="70" y="22" as="targetPoint" />
          </mxGeometry>
        </mxCell>
        <mxCell id="FgRab_RMm033HroBVEti-203" value="" style="endArrow=none;dashed=1;html=1;dashPattern=1 3;strokeWidth=2;rounded=0;exitX=1;exitY=0.75;exitDx=0;exitDy=0;" parent="FgRab_RMm033HroBVEti-198" edge="1">
          <mxGeometry width="50" height="50" relative="1" as="geometry">
            <mxPoint x="1" y="62" as="sourcePoint" />
            <mxPoint x="70" y="62" as="targetPoint" />
          </mxGeometry>
        </mxCell>
        <mxCell id="koRiwNtVhz7t4iRK5Pyj-6" value="" style="endArrow=none;html=1;rounded=0;" parent="FgRab_RMm033HroBVEti-132" edge="1">
          <mxGeometry width="50" height="50" relative="1" as="geometry">
            <mxPoint x="10" y="41" as="sourcePoint" />
            <mxPoint x="80" y="41" as="targetPoint" />
          </mxGeometry>
        </mxCell>
        <mxCell id="FgRab_RMm033HroBVEti-184" value="" style="group" parent="FgRab_RMm033HroBVEti-215" vertex="1" connectable="0">
          <mxGeometry x="80" width="80" height="80" as="geometry" />
        </mxCell>
        <mxCell id="FgRab_RMm033HroBVEti-185" value="" style="endArrow=none;html=1;rounded=0;" parent="FgRab_RMm033HroBVEti-184" edge="1">
          <mxGeometry width="50" height="50" relative="1" as="geometry">
            <mxPoint as="sourcePoint" />
            <mxPoint y="80" as="targetPoint" />
          </mxGeometry>
        </mxCell>
        <mxCell id="FgRab_RMm033HroBVEti-186" value="" style="endArrow=none;html=1;rounded=0;" parent="FgRab_RMm033HroBVEti-184" edge="1">
          <mxGeometry width="50" height="50" relative="1" as="geometry">
            <mxPoint x="40" y="1" as="sourcePoint" />
            <mxPoint x="40" y="80" as="targetPoint" />
          </mxGeometry>
        </mxCell>
        <mxCell id="FgRab_RMm033HroBVEti-187" value="" style="endArrow=none;html=1;rounded=0;" parent="FgRab_RMm033HroBVEti-184" edge="1">
          <mxGeometry width="50" height="50" relative="1" as="geometry">
            <mxPoint x="80" as="sourcePoint" />
            <mxPoint x="80" y="80" as="targetPoint" />
          </mxGeometry>
        </mxCell>
        <mxCell id="FgRab_RMm033HroBVEti-188" value="" style="endArrow=none;dashed=1;html=1;dashPattern=1 3;strokeWidth=2;rounded=0;exitX=1;exitY=0.75;exitDx=0;exitDy=0;" parent="FgRab_RMm033HroBVEti-184" edge="1">
          <mxGeometry width="50" height="50" relative="1" as="geometry">
            <mxPoint x="22" y="79" as="sourcePoint" />
            <mxPoint x="22" y="10" as="targetPoint" />
          </mxGeometry>
        </mxCell>
        <mxCell id="FgRab_RMm033HroBVEti-189" value="" style="endArrow=none;dashed=1;html=1;dashPattern=1 3;strokeWidth=2;rounded=0;exitX=1;exitY=0.75;exitDx=0;exitDy=0;" parent="FgRab_RMm033HroBVEti-184" edge="1">
          <mxGeometry width="50" height="50" relative="1" as="geometry">
            <mxPoint x="62" y="79" as="sourcePoint" />
            <mxPoint x="62" y="10" as="targetPoint" />
          </mxGeometry>
        </mxCell>
        <mxCell id="FgRab_RMm033HroBVEti-121" value="" style="shape=image;html=1;verticalAlign=top;verticalLabelPosition=bottom;labelBackgroundColor=#ffffff;imageAspect=0;aspect=fixed;image=https://cdn2.iconfinder.com/data/icons/crystalproject/128x128/apps/daemons.png;rotation=-90;" parent="FgRab_RMm033HroBVEti-215" vertex="1">
          <mxGeometry x="50" y="54" width="28" height="28" as="geometry" />
        </mxCell>
        <mxCell id="FgRab_RMm033HroBVEti-67" value="" style="endArrow=classic;html=1;rounded=0;" parent="1" edge="1">
          <mxGeometry width="50" height="50" relative="1" as="geometry">
            <mxPoint x="545" y="210" as="sourcePoint" />
            <mxPoint x="525" y="170" as="targetPoint" />
            <Array as="points">
              <mxPoint x="525" y="190" />
            </Array>
          </mxGeometry>
        </mxCell>
        <mxCell id="FgRab_RMm033HroBVEti-78" value="" style="endArrow=none;dashed=1;html=1;dashPattern=1 3;strokeWidth=2;rounded=0;entryX=0;entryY=0.75;entryDx=0;entryDy=0;" parent="1" edge="1">
          <mxGeometry width="50" height="50" relative="1" as="geometry">
            <mxPoint x="395" y="97" as="sourcePoint" />
            <mxPoint x="475" y="97" as="targetPoint" />
            <Array as="points">
              <mxPoint x="435" y="97" />
            </Array>
          </mxGeometry>
        </mxCell>
        <mxCell id="FgRab_RMm033HroBVEti-79" value="" style="endArrow=none;dashed=1;html=1;dashPattern=1 3;strokeWidth=2;rounded=0;entryX=0;entryY=0.75;entryDx=0;entryDy=0;" parent="1" edge="1">
          <mxGeometry width="50" height="50" relative="1" as="geometry">
            <mxPoint x="397" y="63" as="sourcePoint" />
            <mxPoint x="477" y="63" as="targetPoint" />
            <Array as="points">
              <mxPoint x="437" y="63" />
            </Array>
          </mxGeometry>
        </mxCell>
        <mxCell id="Iy0tw2fTmAYlur3BA6cA-12" value="" style="group" parent="1" vertex="1" connectable="0">
          <mxGeometry x="134" y="280" width="240" height="291" as="geometry" />
        </mxCell>
        <mxCell id="FgRab_RMm033HroBVEti-190" value="" style="group" parent="Iy0tw2fTmAYlur3BA6cA-12" vertex="1" connectable="0">
          <mxGeometry x="79" width="80" height="80" as="geometry" />
        </mxCell>
        <mxCell id="FgRab_RMm033HroBVEti-191" value="" style="endArrow=none;html=1;rounded=0;" parent="FgRab_RMm033HroBVEti-190" edge="1">
          <mxGeometry width="50" height="50" relative="1" as="geometry">
            <mxPoint as="sourcePoint" />
            <mxPoint y="80" as="targetPoint" />
          </mxGeometry>
        </mxCell>
        <mxCell id="FgRab_RMm033HroBVEti-192" value="" style="endArrow=none;html=1;rounded=0;" parent="FgRab_RMm033HroBVEti-190" edge="1">
          <mxGeometry width="50" height="50" relative="1" as="geometry">
            <mxPoint x="40" y="1" as="sourcePoint" />
            <mxPoint x="40" y="80" as="targetPoint" />
          </mxGeometry>
        </mxCell>
        <mxCell id="FgRab_RMm033HroBVEti-193" value="" style="endArrow=none;html=1;rounded=0;" parent="FgRab_RMm033HroBVEti-190" edge="1">
          <mxGeometry width="50" height="50" relative="1" as="geometry">
            <mxPoint x="80" as="sourcePoint" />
            <mxPoint x="80" y="80" as="targetPoint" />
          </mxGeometry>
        </mxCell>
        <mxCell id="FgRab_RMm033HroBVEti-194" value="" style="endArrow=none;dashed=1;html=1;dashPattern=1 3;strokeWidth=2;rounded=0;exitX=1;exitY=0.75;exitDx=0;exitDy=0;" parent="FgRab_RMm033HroBVEti-190" edge="1">
          <mxGeometry width="50" height="50" relative="1" as="geometry">
            <mxPoint x="22" y="79" as="sourcePoint" />
            <mxPoint x="22" y="10" as="targetPoint" />
          </mxGeometry>
        </mxCell>
        <mxCell id="FgRab_RMm033HroBVEti-195" value="" style="endArrow=none;dashed=1;html=1;dashPattern=1 3;strokeWidth=2;rounded=0;exitX=1;exitY=0.75;exitDx=0;exitDy=0;" parent="FgRab_RMm033HroBVEti-190" edge="1">
          <mxGeometry width="50" height="50" relative="1" as="geometry">
            <mxPoint x="62" y="79" as="sourcePoint" />
            <mxPoint x="62" y="10" as="targetPoint" />
          </mxGeometry>
        </mxCell>
        <mxCell id="FgRab_RMm033HroBVEti-85" value="" style="whiteSpace=wrap;html=1;aspect=fixed;strokeColor=#000000;fillColor=#d2c6c6;" parent="Iy0tw2fTmAYlur3BA6cA-12" vertex="1">
          <mxGeometry x="80" y="81" width="80" height="80" as="geometry" />
        </mxCell>
        <mxCell id="FgRab_RMm033HroBVEti-86" value="" style="endArrow=none;html=1;rounded=0;entryX=0;entryY=1;entryDx=0;entryDy=0;" parent="Iy0tw2fTmAYlur3BA6cA-12" target="FgRab_RMm033HroBVEti-85" edge="1">
          <mxGeometry width="50" height="50" relative="1" as="geometry">
            <mxPoint x="80" y="291" as="sourcePoint" />
            <mxPoint x="400" y="241" as="targetPoint" />
          </mxGeometry>
        </mxCell>
        <mxCell id="FgRab_RMm033HroBVEti-87" value="" style="endArrow=none;html=1;rounded=0;entryX=1;entryY=1;entryDx=0;entryDy=0;" parent="Iy0tw2fTmAYlur3BA6cA-12" target="FgRab_RMm033HroBVEti-85" edge="1">
          <mxGeometry width="50" height="50" relative="1" as="geometry">
            <mxPoint x="160" y="291" as="sourcePoint" />
            <mxPoint x="160" y="162" as="targetPoint" />
            <Array as="points">
              <mxPoint x="160" y="272" />
            </Array>
          </mxGeometry>
        </mxCell>
        <mxCell id="FgRab_RMm033HroBVEti-88" value="" style="endArrow=none;html=1;rounded=0;entryX=0.5;entryY=1;entryDx=0;entryDy=0;" parent="Iy0tw2fTmAYlur3BA6cA-12" target="FgRab_RMm033HroBVEti-85" edge="1">
          <mxGeometry width="50" height="50" relative="1" as="geometry">
            <mxPoint x="120" y="290" as="sourcePoint" />
            <mxPoint x="120" y="171" as="targetPoint" />
            <Array as="points">
              <mxPoint x="119.5" y="271" />
            </Array>
          </mxGeometry>
        </mxCell>
        <mxCell id="FgRab_RMm033HroBVEti-89" value="" style="endArrow=none;html=1;rounded=0;" parent="Iy0tw2fTmAYlur3BA6cA-12" edge="1">
          <mxGeometry width="50" height="50" relative="1" as="geometry">
            <mxPoint y="161" as="sourcePoint" />
            <mxPoint x="80" y="161" as="targetPoint" />
          </mxGeometry>
        </mxCell>
        <mxCell id="FgRab_RMm033HroBVEti-90" value="" style="shape=image;html=1;verticalAlign=top;verticalLabelPosition=bottom;labelBackgroundColor=#ffffff;imageAspect=0;aspect=fixed;image=https://cdn4.iconfinder.com/data/icons/transportation-190/1000/transport_automobile_auto_sedan_car_transportation_vehicle-128.png;rotation=90;" parent="Iy0tw2fTmAYlur3BA6cA-12" vertex="1">
          <mxGeometry x="133" y="251" width="40" height="40" as="geometry" />
        </mxCell>
        <mxCell id="FgRab_RMm033HroBVEti-91" value="" style="endArrow=none;html=1;rounded=0;exitX=1;exitY=0;exitDx=0;exitDy=0;" parent="Iy0tw2fTmAYlur3BA6cA-12" source="FgRab_RMm033HroBVEti-85" edge="1">
          <mxGeometry width="50" height="50" relative="1" as="geometry">
            <mxPoint x="200" y="91" as="sourcePoint" />
            <mxPoint x="240" y="81" as="targetPoint" />
          </mxGeometry>
        </mxCell>
        <mxCell id="FgRab_RMm033HroBVEti-92" value="" style="endArrow=none;html=1;rounded=0;" parent="Iy0tw2fTmAYlur3BA6cA-12" edge="1">
          <mxGeometry width="50" height="50" relative="1" as="geometry">
            <mxPoint y="81" as="sourcePoint" />
            <mxPoint x="80" y="81" as="targetPoint" />
          </mxGeometry>
        </mxCell>
        <mxCell id="FgRab_RMm033HroBVEti-93" value="" style="endArrow=none;html=1;rounded=0;exitX=1;exitY=1;exitDx=0;exitDy=0;" parent="Iy0tw2fTmAYlur3BA6cA-12" source="FgRab_RMm033HroBVEti-85" edge="1">
          <mxGeometry width="50" height="50" relative="1" as="geometry">
            <mxPoint x="400" y="321" as="sourcePoint" />
            <mxPoint x="240" y="161" as="targetPoint" />
          </mxGeometry>
        </mxCell>
        <mxCell id="FgRab_RMm033HroBVEti-95" value="" style="endArrow=none;dashed=1;html=1;dashPattern=1 3;strokeWidth=2;rounded=0;entryX=0.25;entryY=1;entryDx=0;entryDy=0;exitX=1;exitY=0.75;exitDx=0;exitDy=0;" parent="Iy0tw2fTmAYlur3BA6cA-12" edge="1">
          <mxGeometry width="50" height="50" relative="1" as="geometry">
            <mxPoint x="141" y="291" as="sourcePoint" />
            <mxPoint x="141" y="161" as="targetPoint" />
          </mxGeometry>
        </mxCell>
        <mxCell id="FgRab_RMm033HroBVEti-96" value="" style="endArrow=none;dashed=1;html=1;dashPattern=1 3;strokeWidth=2;rounded=0;entryX=0;entryY=0.75;entryDx=0;entryDy=0;" parent="Iy0tw2fTmAYlur3BA6cA-12" target="FgRab_RMm033HroBVEti-85" edge="1">
          <mxGeometry width="50" height="50" relative="1" as="geometry">
            <mxPoint y="141" as="sourcePoint" />
            <mxPoint x="110" y="171" as="targetPoint" />
            <Array as="points">
              <mxPoint x="40" y="141" />
            </Array>
          </mxGeometry>
        </mxCell>
        <mxCell id="FgRab_RMm033HroBVEti-97" value="" style="endArrow=none;dashed=1;html=1;dashPattern=1 3;strokeWidth=2;rounded=0;entryX=0;entryY=0.75;entryDx=0;entryDy=0;" parent="Iy0tw2fTmAYlur3BA6cA-12" edge="1">
          <mxGeometry width="50" height="50" relative="1" as="geometry">
            <mxPoint x="2" y="107" as="sourcePoint" />
            <mxPoint x="82" y="107" as="targetPoint" />
            <Array as="points">
              <mxPoint x="42" y="107" />
            </Array>
          </mxGeometry>
        </mxCell>
        <mxCell id="FgRab_RMm033HroBVEti-98" value="" style="shape=image;html=1;verticalAlign=top;verticalLabelPosition=bottom;labelBackgroundColor=#ffffff;imageAspect=0;aspect=fixed;image=https://cdn2.iconfinder.com/data/icons/crystalproject/128x128/apps/daemons.png" parent="Iy0tw2fTmAYlur3BA6cA-12" vertex="1">
          <mxGeometry x="158" y="53" width="28" height="28" as="geometry" />
        </mxCell>
        <mxCell id="FgRab_RMm033HroBVEti-106" value="" style="curved=1;endArrow=classic;html=1;rounded=0;" parent="Iy0tw2fTmAYlur3BA6cA-12" edge="1">
          <mxGeometry width="50" height="50" relative="1" as="geometry">
            <mxPoint x="151" y="179" as="sourcePoint" />
            <mxPoint x="186" y="150" as="targetPoint" />
            <Array as="points">
              <mxPoint x="151" y="160" />
              <mxPoint x="166" y="150" />
            </Array>
          </mxGeometry>
        </mxCell>
        <mxCell id="FgRab_RMm033HroBVEti-206" value="" style="group;rotation=90;" parent="Iy0tw2fTmAYlur3BA6cA-12" vertex="1" connectable="0">
          <mxGeometry x="160" y="81" width="80" height="80" as="geometry" />
        </mxCell>
        <mxCell id="FgRab_RMm033HroBVEti-207" value="" style="endArrow=none;html=1;rounded=0;" parent="FgRab_RMm033HroBVEti-206" edge="1">
          <mxGeometry width="50" height="50" relative="1" as="geometry">
            <mxPoint x="80" as="sourcePoint" />
            <mxPoint as="targetPoint" />
          </mxGeometry>
        </mxCell>
        <mxCell id="FgRab_RMm033HroBVEti-208" value="" style="endArrow=none;html=1;rounded=0;" parent="FgRab_RMm033HroBVEti-206" edge="1">
          <mxGeometry width="50" height="50" relative="1" as="geometry">
            <mxPoint x="79" y="40" as="sourcePoint" />
            <mxPoint y="40" as="targetPoint" />
          </mxGeometry>
        </mxCell>
        <mxCell id="FgRab_RMm033HroBVEti-209" value="" style="endArrow=none;html=1;rounded=0;" parent="FgRab_RMm033HroBVEti-206" edge="1">
          <mxGeometry width="50" height="50" relative="1" as="geometry">
            <mxPoint x="80" y="80" as="sourcePoint" />
            <mxPoint y="80" as="targetPoint" />
          </mxGeometry>
        </mxCell>
        <mxCell id="FgRab_RMm033HroBVEti-210" value="" style="endArrow=none;dashed=1;html=1;dashPattern=1 3;strokeWidth=2;rounded=0;exitX=1;exitY=0.75;exitDx=0;exitDy=0;" parent="FgRab_RMm033HroBVEti-206" edge="1">
          <mxGeometry width="50" height="50" relative="1" as="geometry">
            <mxPoint x="1" y="22" as="sourcePoint" />
            <mxPoint x="70" y="22" as="targetPoint" />
          </mxGeometry>
        </mxCell>
        <mxCell id="FgRab_RMm033HroBVEti-211" value="" style="endArrow=none;dashed=1;html=1;dashPattern=1 3;strokeWidth=2;rounded=0;exitX=1;exitY=0.75;exitDx=0;exitDy=0;" parent="FgRab_RMm033HroBVEti-206" edge="1">
          <mxGeometry width="50" height="50" relative="1" as="geometry">
            <mxPoint x="1" y="62" as="sourcePoint" />
            <mxPoint x="70" y="62" as="targetPoint" />
          </mxGeometry>
        </mxCell>
        <mxCell id="koRiwNtVhz7t4iRK5Pyj-5" value="" style="endArrow=none;html=1;rounded=0;" parent="Iy0tw2fTmAYlur3BA6cA-12" edge="1">
          <mxGeometry width="50" height="50" relative="1" as="geometry">
            <mxPoint x="10" y="120.51999999999998" as="sourcePoint" />
            <mxPoint x="80" y="120.51999999999998" as="targetPoint" />
          </mxGeometry>
        </mxCell>
        <mxCell id="Iy0tw2fTmAYlur3BA6cA-14" value="" style="group" parent="1" vertex="1" connectable="0">
          <mxGeometry x="651" y="-40" width="240" height="290" as="geometry" />
        </mxCell>
        <mxCell id="FgRab_RMm033HroBVEti-128" value="" style="group" parent="Iy0tw2fTmAYlur3BA6cA-14" vertex="1" connectable="0">
          <mxGeometry x="12" y="79" width="240" height="211" as="geometry" />
        </mxCell>
        <mxCell id="FgRab_RMm033HroBVEti-36" value="" style="endArrow=none;html=1;rounded=0;" parent="FgRab_RMm033HroBVEti-128" edge="1">
          <mxGeometry width="50" height="50" relative="1" as="geometry">
            <mxPoint y="80" as="sourcePoint" />
            <mxPoint x="80" y="80" as="targetPoint" />
          </mxGeometry>
        </mxCell>
        <mxCell id="FgRab_RMm033HroBVEti-40" value="" style="endArrow=none;html=1;rounded=0;" parent="FgRab_RMm033HroBVEti-128" edge="1">
          <mxGeometry width="50" height="50" relative="1" as="geometry">
            <mxPoint as="sourcePoint" />
            <mxPoint x="80" as="targetPoint" />
          </mxGeometry>
        </mxCell>
        <mxCell id="FgRab_RMm033HroBVEti-82" value="" style="endArrow=none;dashed=1;html=1;dashPattern=1 3;strokeWidth=2;rounded=0;entryX=0;entryY=0.75;entryDx=0;entryDy=0;" parent="FgRab_RMm033HroBVEti-128" edge="1">
          <mxGeometry width="50" height="50" relative="1" as="geometry">
            <mxPoint x="1" y="59" as="sourcePoint" />
            <mxPoint x="81" y="59" as="targetPoint" />
            <Array as="points">
              <mxPoint x="41" y="59" />
            </Array>
          </mxGeometry>
        </mxCell>
        <mxCell id="FgRab_RMm033HroBVEti-216" value="" style="group" parent="FgRab_RMm033HroBVEti-128" vertex="1" connectable="0">
          <mxGeometry x="43" width="197" height="211" as="geometry" />
        </mxCell>
        <mxCell id="FgRab_RMm033HroBVEti-31" value="" style="whiteSpace=wrap;html=1;aspect=fixed;fillColor=#d2c6c6;strokeColor=#000000;" parent="FgRab_RMm033HroBVEti-216" vertex="1">
          <mxGeometry x="37" width="80" height="80" as="geometry" />
        </mxCell>
        <mxCell id="FgRab_RMm033HroBVEti-32" value="" style="endArrow=none;html=1;rounded=0;entryX=0;entryY=1;entryDx=0;entryDy=0;" parent="FgRab_RMm033HroBVEti-216" target="FgRab_RMm033HroBVEti-31" edge="1">
          <mxGeometry width="50" height="50" relative="1" as="geometry">
            <mxPoint x="37" y="210" as="sourcePoint" />
            <mxPoint x="357" y="160" as="targetPoint" />
          </mxGeometry>
        </mxCell>
        <mxCell id="FgRab_RMm033HroBVEti-34" value="" style="endArrow=none;html=1;rounded=0;entryX=1;entryY=1;entryDx=0;entryDy=0;" parent="FgRab_RMm033HroBVEti-216" target="FgRab_RMm033HroBVEti-31" edge="1">
          <mxGeometry width="50" height="50" relative="1" as="geometry">
            <mxPoint x="117" y="210" as="sourcePoint" />
            <mxPoint x="117" y="81" as="targetPoint" />
            <Array as="points">
              <mxPoint x="117" y="191" />
            </Array>
          </mxGeometry>
        </mxCell>
        <mxCell id="FgRab_RMm033HroBVEti-35" value="" style="endArrow=none;html=1;rounded=0;entryX=0.5;entryY=1;entryDx=0;entryDy=0;" parent="FgRab_RMm033HroBVEti-216" target="FgRab_RMm033HroBVEti-31" edge="1">
          <mxGeometry width="50" height="50" relative="1" as="geometry">
            <mxPoint x="77" y="211" as="sourcePoint" />
            <mxPoint x="77" y="90" as="targetPoint" />
            <Array as="points" />
          </mxGeometry>
        </mxCell>
        <mxCell id="FgRab_RMm033HroBVEti-38" value="" style="shape=image;html=1;verticalAlign=top;verticalLabelPosition=bottom;labelBackgroundColor=#ffffff;imageAspect=0;aspect=fixed;image=https://cdn4.iconfinder.com/data/icons/transportation-190/1000/transport_automobile_auto_sedan_car_transportation_vehicle-128.png;rotation=90;" parent="FgRab_RMm033HroBVEti-216" vertex="1">
          <mxGeometry x="89" y="172" width="40" height="40" as="geometry" />
        </mxCell>
        <mxCell id="FgRab_RMm033HroBVEti-39" value="" style="endArrow=none;html=1;rounded=0;exitX=1;exitY=0;exitDx=0;exitDy=0;" parent="FgRab_RMm033HroBVEti-216" source="FgRab_RMm033HroBVEti-31" edge="1">
          <mxGeometry width="50" height="50" relative="1" as="geometry">
            <mxPoint x="157" y="10" as="sourcePoint" />
            <mxPoint x="197" as="targetPoint" />
          </mxGeometry>
        </mxCell>
        <mxCell id="FgRab_RMm033HroBVEti-41" value="" style="endArrow=none;html=1;rounded=0;exitX=1;exitY=1;exitDx=0;exitDy=0;" parent="FgRab_RMm033HroBVEti-216" source="FgRab_RMm033HroBVEti-31" edge="1">
          <mxGeometry width="50" height="50" relative="1" as="geometry">
            <mxPoint x="357" y="240" as="sourcePoint" />
            <mxPoint x="197" y="80" as="targetPoint" />
          </mxGeometry>
        </mxCell>
        <mxCell id="FgRab_RMm033HroBVEti-43" value="" style="endArrow=classic;html=1;rounded=0;" parent="FgRab_RMm033HroBVEti-216" edge="1">
          <mxGeometry width="50" height="50" relative="1" as="geometry">
            <mxPoint x="105" y="89" as="sourcePoint" />
            <mxPoint x="105" y="-20" as="targetPoint" />
            <Array as="points">
              <mxPoint x="105" y="64" />
            </Array>
          </mxGeometry>
        </mxCell>
        <mxCell id="FgRab_RMm033HroBVEti-46" value="" style="endArrow=none;dashed=1;html=1;dashPattern=1 3;strokeWidth=2;rounded=0;exitX=0.021;exitY=0.903;exitDx=0;exitDy=0;exitPerimeter=0;entryX=0.992;entryY=0.918;entryDx=0;entryDy=0;entryPerimeter=0;" parent="FgRab_RMm033HroBVEti-216" source="FgRab_RMm033HroBVEti-31" target="FgRab_RMm033HroBVEti-31" edge="1">
          <mxGeometry width="50" height="50" relative="1" as="geometry">
            <mxPoint x="79" y="230" as="sourcePoint" />
            <mxPoint x="129" y="180" as="targetPoint" />
          </mxGeometry>
        </mxCell>
        <mxCell id="FgRab_RMm033HroBVEti-47" value="" style="shape=mxgraph.signs.safety.pedestrian_crossing;html=1;pointerEvents=1;fillColor=#000000;strokeColor=none;verticalLabelPosition=bottom;verticalAlign=top;align=center;" parent="FgRab_RMm033HroBVEti-216" vertex="1">
          <mxGeometry x="17" y="50" width="23" height="30" as="geometry" />
        </mxCell>
        <mxCell id="FgRab_RMm033HroBVEti-73" value="" style="endArrow=none;dashed=1;html=1;dashPattern=1 3;strokeWidth=2;rounded=0;entryX=0.25;entryY=1;entryDx=0;entryDy=0;exitX=1;exitY=0.75;exitDx=0;exitDy=0;" parent="FgRab_RMm033HroBVEti-216" edge="1">
          <mxGeometry width="50" height="50" relative="1" as="geometry">
            <mxPoint x="98" y="210" as="sourcePoint" />
            <mxPoint x="98" y="80" as="targetPoint" />
          </mxGeometry>
        </mxCell>
        <mxCell id="FgRab_RMm033HroBVEti-83" value="" style="endArrow=none;dashed=1;html=1;dashPattern=1 3;strokeWidth=2;rounded=0;entryX=0;entryY=0.75;entryDx=0;entryDy=0;" parent="FgRab_RMm033HroBVEti-216" edge="1">
          <mxGeometry width="50" height="50" relative="1" as="geometry">
            <mxPoint x="-40" y="25" as="sourcePoint" />
            <mxPoint x="40" y="25" as="targetPoint" />
            <Array as="points">
              <mxPoint y="25" />
            </Array>
          </mxGeometry>
        </mxCell>
        <mxCell id="FgRab_RMm033HroBVEti-160" value="" style="group;rotation=90;" parent="FgRab_RMm033HroBVEti-216" vertex="1" connectable="0">
          <mxGeometry x="117" width="80" height="80" as="geometry" />
        </mxCell>
        <mxCell id="FgRab_RMm033HroBVEti-161" value="" style="endArrow=none;html=1;rounded=0;" parent="FgRab_RMm033HroBVEti-160" edge="1">
          <mxGeometry width="50" height="50" relative="1" as="geometry">
            <mxPoint x="80" as="sourcePoint" />
            <mxPoint as="targetPoint" />
          </mxGeometry>
        </mxCell>
        <mxCell id="FgRab_RMm033HroBVEti-162" value="" style="endArrow=none;html=1;rounded=0;" parent="FgRab_RMm033HroBVEti-160" edge="1">
          <mxGeometry width="50" height="50" relative="1" as="geometry">
            <mxPoint x="79" y="40" as="sourcePoint" />
            <mxPoint y="40" as="targetPoint" />
          </mxGeometry>
        </mxCell>
        <mxCell id="FgRab_RMm033HroBVEti-163" value="" style="endArrow=none;html=1;rounded=0;" parent="FgRab_RMm033HroBVEti-160" edge="1">
          <mxGeometry width="50" height="50" relative="1" as="geometry">
            <mxPoint x="80" y="80" as="sourcePoint" />
            <mxPoint y="80" as="targetPoint" />
          </mxGeometry>
        </mxCell>
        <mxCell id="FgRab_RMm033HroBVEti-164" value="" style="endArrow=none;dashed=1;html=1;dashPattern=1 3;strokeWidth=2;rounded=0;exitX=1;exitY=0.75;exitDx=0;exitDy=0;" parent="FgRab_RMm033HroBVEti-160" edge="1">
          <mxGeometry width="50" height="50" relative="1" as="geometry">
            <mxPoint x="1" y="22" as="sourcePoint" />
            <mxPoint x="70" y="22" as="targetPoint" />
          </mxGeometry>
        </mxCell>
        <mxCell id="FgRab_RMm033HroBVEti-165" value="" style="endArrow=none;dashed=1;html=1;dashPattern=1 3;strokeWidth=2;rounded=0;exitX=1;exitY=0.75;exitDx=0;exitDy=0;" parent="FgRab_RMm033HroBVEti-160" edge="1">
          <mxGeometry width="50" height="50" relative="1" as="geometry">
            <mxPoint x="1" y="62" as="sourcePoint" />
            <mxPoint x="70" y="62" as="targetPoint" />
          </mxGeometry>
        </mxCell>
        <mxCell id="Iy0tw2fTmAYlur3BA6cA-11" value="" style="shape=image;html=1;verticalAlign=top;verticalLabelPosition=bottom;labelBackgroundColor=#ffffff;imageAspect=0;aspect=fixed;image=https://cdn4.iconfinder.com/data/icons/ionicons/512/icon-ios7-timer-128.png" parent="FgRab_RMm033HroBVEti-216" vertex="1">
          <mxGeometry x="119.5" y="82" width="48" height="48" as="geometry" />
        </mxCell>
        <mxCell id="FgRab_RMm033HroBVEti-147" value="" style="group" parent="Iy0tw2fTmAYlur3BA6cA-14" vertex="1" connectable="0">
          <mxGeometry x="93" width="80" height="80" as="geometry" />
        </mxCell>
        <mxCell id="FgRab_RMm033HroBVEti-134" value="" style="endArrow=none;html=1;rounded=0;" parent="FgRab_RMm033HroBVEti-147" edge="1">
          <mxGeometry width="50" height="50" relative="1" as="geometry">
            <mxPoint as="sourcePoint" />
            <mxPoint y="80" as="targetPoint" />
          </mxGeometry>
        </mxCell>
        <mxCell id="FgRab_RMm033HroBVEti-135" value="" style="endArrow=none;html=1;rounded=0;" parent="FgRab_RMm033HroBVEti-147" edge="1">
          <mxGeometry width="50" height="50" relative="1" as="geometry">
            <mxPoint x="40" y="1" as="sourcePoint" />
            <mxPoint x="40" y="80" as="targetPoint" />
          </mxGeometry>
        </mxCell>
        <mxCell id="FgRab_RMm033HroBVEti-136" value="" style="endArrow=none;html=1;rounded=0;" parent="FgRab_RMm033HroBVEti-147" edge="1">
          <mxGeometry width="50" height="50" relative="1" as="geometry">
            <mxPoint x="80" as="sourcePoint" />
            <mxPoint x="80" y="80" as="targetPoint" />
          </mxGeometry>
        </mxCell>
        <mxCell id="FgRab_RMm033HroBVEti-139" value="" style="endArrow=none;dashed=1;html=1;dashPattern=1 3;strokeWidth=2;rounded=0;exitX=1;exitY=0.75;exitDx=0;exitDy=0;" parent="FgRab_RMm033HroBVEti-147" edge="1">
          <mxGeometry width="50" height="50" relative="1" as="geometry">
            <mxPoint x="22" y="79" as="sourcePoint" />
            <mxPoint x="22" y="10" as="targetPoint" />
          </mxGeometry>
        </mxCell>
        <mxCell id="FgRab_RMm033HroBVEti-141" value="" style="endArrow=none;dashed=1;html=1;dashPattern=1 3;strokeWidth=2;rounded=0;exitX=1;exitY=0.75;exitDx=0;exitDy=0;" parent="FgRab_RMm033HroBVEti-147" edge="1">
          <mxGeometry width="50" height="50" relative="1" as="geometry">
            <mxPoint x="62" y="79" as="sourcePoint" />
            <mxPoint x="62" y="10" as="targetPoint" />
          </mxGeometry>
        </mxCell>
        <mxCell id="Iy0tw2fTmAYlur3BA6cA-15" value="" style="group" parent="1" vertex="1" connectable="0">
          <mxGeometry x="133" y="-40" width="240" height="290" as="geometry" />
        </mxCell>
        <mxCell id="FgRab_RMm033HroBVEti-154" value="" style="group" parent="Iy0tw2fTmAYlur3BA6cA-15" vertex="1" connectable="0">
          <mxGeometry x="80" width="80" height="80" as="geometry" />
        </mxCell>
        <mxCell id="FgRab_RMm033HroBVEti-155" value="" style="endArrow=none;html=1;rounded=0;" parent="FgRab_RMm033HroBVEti-154" edge="1">
          <mxGeometry width="50" height="50" relative="1" as="geometry">
            <mxPoint as="sourcePoint" />
            <mxPoint y="80" as="targetPoint" />
          </mxGeometry>
        </mxCell>
        <mxCell id="FgRab_RMm033HroBVEti-156" value="" style="endArrow=none;html=1;rounded=0;" parent="FgRab_RMm033HroBVEti-154" edge="1">
          <mxGeometry width="50" height="50" relative="1" as="geometry">
            <mxPoint x="40" y="1" as="sourcePoint" />
            <mxPoint x="40" y="80" as="targetPoint" />
          </mxGeometry>
        </mxCell>
        <mxCell id="FgRab_RMm033HroBVEti-157" value="" style="endArrow=none;html=1;rounded=0;" parent="FgRab_RMm033HroBVEti-154" edge="1">
          <mxGeometry width="50" height="50" relative="1" as="geometry">
            <mxPoint x="80" as="sourcePoint" />
            <mxPoint x="80" y="80" as="targetPoint" />
          </mxGeometry>
        </mxCell>
        <mxCell id="FgRab_RMm033HroBVEti-158" value="" style="endArrow=none;dashed=1;html=1;dashPattern=1 3;strokeWidth=2;rounded=0;exitX=1;exitY=0.75;exitDx=0;exitDy=0;" parent="FgRab_RMm033HroBVEti-154" edge="1">
          <mxGeometry width="50" height="50" relative="1" as="geometry">
            <mxPoint x="22" y="79" as="sourcePoint" />
            <mxPoint x="22" y="10" as="targetPoint" />
          </mxGeometry>
        </mxCell>
        <mxCell id="FgRab_RMm033HroBVEti-159" value="" style="endArrow=none;dashed=1;html=1;dashPattern=1 3;strokeWidth=2;rounded=0;exitX=1;exitY=0.75;exitDx=0;exitDy=0;" parent="FgRab_RMm033HroBVEti-154" edge="1">
          <mxGeometry width="50" height="50" relative="1" as="geometry">
            <mxPoint x="62" y="79" as="sourcePoint" />
            <mxPoint x="62" y="10" as="targetPoint" />
          </mxGeometry>
        </mxCell>
        <mxCell id="FgRab_RMm033HroBVEti-53" value="" style="whiteSpace=wrap;html=1;aspect=fixed;strokeColor=#000000;fillColor=#d2c6c6;" parent="Iy0tw2fTmAYlur3BA6cA-15" vertex="1">
          <mxGeometry x="80" y="80" width="80" height="80" as="geometry" />
        </mxCell>
        <mxCell id="FgRab_RMm033HroBVEti-54" value="" style="endArrow=none;html=1;rounded=0;entryX=0;entryY=1;entryDx=0;entryDy=0;" parent="Iy0tw2fTmAYlur3BA6cA-15" target="FgRab_RMm033HroBVEti-53" edge="1">
          <mxGeometry width="50" height="50" relative="1" as="geometry">
            <mxPoint x="80" y="290" as="sourcePoint" />
            <mxPoint x="400" y="240" as="targetPoint" />
          </mxGeometry>
        </mxCell>
        <mxCell id="FgRab_RMm033HroBVEti-56" value="" style="endArrow=none;html=1;rounded=0;entryX=1;entryY=1;entryDx=0;entryDy=0;" parent="Iy0tw2fTmAYlur3BA6cA-15" target="FgRab_RMm033HroBVEti-53" edge="1">
          <mxGeometry width="50" height="50" relative="1" as="geometry">
            <mxPoint x="160" y="290" as="sourcePoint" />
            <mxPoint x="160" y="161" as="targetPoint" />
            <Array as="points">
              <mxPoint x="160" y="271" />
            </Array>
          </mxGeometry>
        </mxCell>
        <mxCell id="FgRab_RMm033HroBVEti-57" value="" style="endArrow=none;html=1;rounded=0;entryX=0.5;entryY=1;entryDx=0;entryDy=0;" parent="Iy0tw2fTmAYlur3BA6cA-15" target="FgRab_RMm033HroBVEti-53" edge="1">
          <mxGeometry width="50" height="50" relative="1" as="geometry">
            <mxPoint x="120" y="290" as="sourcePoint" />
            <mxPoint x="120" y="170" as="targetPoint" />
            <Array as="points">
              <mxPoint x="120" y="270" />
            </Array>
          </mxGeometry>
        </mxCell>
        <mxCell id="FgRab_RMm033HroBVEti-58" value="" style="endArrow=none;html=1;rounded=0;" parent="Iy0tw2fTmAYlur3BA6cA-15" edge="1">
          <mxGeometry width="50" height="50" relative="1" as="geometry">
            <mxPoint y="160" as="sourcePoint" />
            <mxPoint x="80" y="160" as="targetPoint" />
          </mxGeometry>
        </mxCell>
        <mxCell id="FgRab_RMm033HroBVEti-60" value="" style="shape=image;html=1;verticalAlign=top;verticalLabelPosition=bottom;labelBackgroundColor=#ffffff;imageAspect=0;aspect=fixed;image=https://cdn4.iconfinder.com/data/icons/transportation-190/1000/transport_automobile_auto_sedan_car_transportation_vehicle-128.png;rotation=90;" parent="Iy0tw2fTmAYlur3BA6cA-15" vertex="1">
          <mxGeometry x="130" y="250" width="40" height="40" as="geometry" />
        </mxCell>
        <mxCell id="FgRab_RMm033HroBVEti-61" value="" style="endArrow=none;html=1;rounded=0;exitX=1;exitY=0;exitDx=0;exitDy=0;" parent="Iy0tw2fTmAYlur3BA6cA-15" source="FgRab_RMm033HroBVEti-53" edge="1">
          <mxGeometry width="50" height="50" relative="1" as="geometry">
            <mxPoint x="200" y="90" as="sourcePoint" />
            <mxPoint x="240" y="80" as="targetPoint" />
          </mxGeometry>
        </mxCell>
        <mxCell id="FgRab_RMm033HroBVEti-62" value="" style="endArrow=none;html=1;rounded=0;" parent="Iy0tw2fTmAYlur3BA6cA-15" edge="1">
          <mxGeometry width="50" height="50" relative="1" as="geometry">
            <mxPoint y="80" as="sourcePoint" />
            <mxPoint x="80" y="80" as="targetPoint" />
          </mxGeometry>
        </mxCell>
        <mxCell id="FgRab_RMm033HroBVEti-63" value="" style="endArrow=none;html=1;rounded=0;exitX=1;exitY=1;exitDx=0;exitDy=0;" parent="Iy0tw2fTmAYlur3BA6cA-15" source="FgRab_RMm033HroBVEti-53" edge="1">
          <mxGeometry width="50" height="50" relative="1" as="geometry">
            <mxPoint x="400" y="320" as="sourcePoint" />
            <mxPoint x="240" y="160" as="targetPoint" />
          </mxGeometry>
        </mxCell>
        <mxCell id="FgRab_RMm033HroBVEti-65" value="" style="endArrow=classic;html=1;rounded=0;" parent="Iy0tw2fTmAYlur3BA6cA-15" edge="1">
          <mxGeometry width="50" height="50" relative="1" as="geometry">
            <mxPoint x="150" y="180" as="sourcePoint" />
            <mxPoint x="150" y="60" as="targetPoint" />
            <Array as="points">
              <mxPoint x="150" y="155" />
            </Array>
          </mxGeometry>
        </mxCell>
        <mxCell id="FgRab_RMm033HroBVEti-71" value="" style="endArrow=none;dashed=1;html=1;dashPattern=1 3;strokeWidth=2;rounded=0;entryX=0.75;entryY=1;entryDx=0;entryDy=0;exitX=1;exitY=0.75;exitDx=0;exitDy=0;" parent="Iy0tw2fTmAYlur3BA6cA-15" source="FgRab_RMm033HroBVEti-60" target="FgRab_RMm033HroBVEti-53" edge="1">
          <mxGeometry width="50" height="50" relative="1" as="geometry">
            <mxPoint x="490" y="180" as="sourcePoint" />
            <mxPoint x="540" y="130" as="targetPoint" />
          </mxGeometry>
        </mxCell>
        <mxCell id="FgRab_RMm033HroBVEti-74" value="" style="endArrow=none;dashed=1;html=1;dashPattern=1 3;strokeWidth=2;rounded=0;entryX=0;entryY=0.75;entryDx=0;entryDy=0;" parent="Iy0tw2fTmAYlur3BA6cA-15" target="FgRab_RMm033HroBVEti-53" edge="1">
          <mxGeometry width="50" height="50" relative="1" as="geometry">
            <mxPoint y="140" as="sourcePoint" />
            <mxPoint x="110" y="170" as="targetPoint" />
            <Array as="points">
              <mxPoint x="40" y="140" />
            </Array>
          </mxGeometry>
        </mxCell>
        <mxCell id="FgRab_RMm033HroBVEti-75" value="" style="endArrow=none;dashed=1;html=1;dashPattern=1 3;strokeWidth=2;rounded=0;entryX=0;entryY=0.75;entryDx=0;entryDy=0;" parent="Iy0tw2fTmAYlur3BA6cA-15" edge="1">
          <mxGeometry width="50" height="50" relative="1" as="geometry">
            <mxPoint x="2" y="106" as="sourcePoint" />
            <mxPoint x="82" y="106" as="targetPoint" />
            <Array as="points">
              <mxPoint x="42" y="106" />
            </Array>
          </mxGeometry>
        </mxCell>
        <mxCell id="FgRab_RMm033HroBVEti-218" value="" style="group;rotation=90;" parent="Iy0tw2fTmAYlur3BA6cA-15" vertex="1" connectable="0">
          <mxGeometry x="160" y="80" width="80" height="80" as="geometry" />
        </mxCell>
        <mxCell id="FgRab_RMm033HroBVEti-219" value="" style="endArrow=none;html=1;rounded=0;" parent="FgRab_RMm033HroBVEti-218" edge="1">
          <mxGeometry width="50" height="50" relative="1" as="geometry">
            <mxPoint x="80" as="sourcePoint" />
            <mxPoint as="targetPoint" />
          </mxGeometry>
        </mxCell>
        <mxCell id="FgRab_RMm033HroBVEti-220" value="" style="endArrow=none;html=1;rounded=0;" parent="FgRab_RMm033HroBVEti-218" edge="1">
          <mxGeometry width="50" height="50" relative="1" as="geometry">
            <mxPoint x="79" y="40" as="sourcePoint" />
            <mxPoint y="40" as="targetPoint" />
          </mxGeometry>
        </mxCell>
        <mxCell id="FgRab_RMm033HroBVEti-221" value="" style="endArrow=none;html=1;rounded=0;" parent="FgRab_RMm033HroBVEti-218" edge="1">
          <mxGeometry width="50" height="50" relative="1" as="geometry">
            <mxPoint x="80" y="80" as="sourcePoint" />
            <mxPoint y="80" as="targetPoint" />
          </mxGeometry>
        </mxCell>
        <mxCell id="FgRab_RMm033HroBVEti-222" value="" style="endArrow=none;dashed=1;html=1;dashPattern=1 3;strokeWidth=2;rounded=0;exitX=1;exitY=0.75;exitDx=0;exitDy=0;" parent="FgRab_RMm033HroBVEti-218" edge="1">
          <mxGeometry width="50" height="50" relative="1" as="geometry">
            <mxPoint x="1" y="22" as="sourcePoint" />
            <mxPoint x="70" y="22" as="targetPoint" />
          </mxGeometry>
        </mxCell>
        <mxCell id="FgRab_RMm033HroBVEti-223" value="" style="endArrow=none;dashed=1;html=1;dashPattern=1 3;strokeWidth=2;rounded=0;exitX=1;exitY=0.75;exitDx=0;exitDy=0;" parent="FgRab_RMm033HroBVEti-218" edge="1">
          <mxGeometry width="50" height="50" relative="1" as="geometry">
            <mxPoint x="1" y="62" as="sourcePoint" />
            <mxPoint x="70" y="62" as="targetPoint" />
          </mxGeometry>
        </mxCell>
        <mxCell id="koRiwNtVhz7t4iRK5Pyj-3" value="" style="endArrow=none;html=1;rounded=0;" parent="Iy0tw2fTmAYlur3BA6cA-15" edge="1">
          <mxGeometry width="50" height="50" relative="1" as="geometry">
            <mxPoint x="10" y="119.52" as="sourcePoint" />
            <mxPoint x="80" y="119.52" as="targetPoint" />
          </mxGeometry>
        </mxCell>
        <mxCell id="FgRab_RMm033HroBVEti-148" value="" style="group" parent="1" vertex="1" connectable="0">
          <mxGeometry x="474" y="-40" width="80" height="80" as="geometry" />
        </mxCell>
        <mxCell id="FgRab_RMm033HroBVEti-149" value="" style="endArrow=none;html=1;rounded=0;" parent="FgRab_RMm033HroBVEti-148" edge="1">
          <mxGeometry width="50" height="50" relative="1" as="geometry">
            <mxPoint as="sourcePoint" />
            <mxPoint y="80" as="targetPoint" />
          </mxGeometry>
        </mxCell>
        <mxCell id="FgRab_RMm033HroBVEti-150" value="" style="endArrow=none;html=1;rounded=0;" parent="FgRab_RMm033HroBVEti-148" edge="1">
          <mxGeometry width="50" height="50" relative="1" as="geometry">
            <mxPoint x="40" y="1" as="sourcePoint" />
            <mxPoint x="40" y="80" as="targetPoint" />
          </mxGeometry>
        </mxCell>
        <mxCell id="FgRab_RMm033HroBVEti-151" value="" style="endArrow=none;html=1;rounded=0;" parent="FgRab_RMm033HroBVEti-148" edge="1">
          <mxGeometry width="50" height="50" relative="1" as="geometry">
            <mxPoint x="80" as="sourcePoint" />
            <mxPoint x="80" y="80" as="targetPoint" />
          </mxGeometry>
        </mxCell>
        <mxCell id="FgRab_RMm033HroBVEti-152" value="" style="endArrow=none;dashed=1;html=1;dashPattern=1 3;strokeWidth=2;rounded=0;exitX=1;exitY=0.75;exitDx=0;exitDy=0;" parent="FgRab_RMm033HroBVEti-148" edge="1">
          <mxGeometry width="50" height="50" relative="1" as="geometry">
            <mxPoint x="22" y="79" as="sourcePoint" />
            <mxPoint x="22" y="10" as="targetPoint" />
          </mxGeometry>
        </mxCell>
        <mxCell id="FgRab_RMm033HroBVEti-153" value="" style="endArrow=none;dashed=1;html=1;dashPattern=1 3;strokeWidth=2;rounded=0;exitX=1;exitY=0.75;exitDx=0;exitDy=0;" parent="FgRab_RMm033HroBVEti-148" edge="1">
          <mxGeometry width="50" height="50" relative="1" as="geometry">
            <mxPoint x="62" y="79" as="sourcePoint" />
            <mxPoint x="62" y="10" as="targetPoint" />
          </mxGeometry>
        </mxCell>
        <mxCell id="FgRab_RMm033HroBVEti-28" value="" style="group" parent="1" vertex="1" connectable="0">
          <mxGeometry x="394" y="39" width="240" height="210" as="geometry" />
        </mxCell>
        <mxCell id="FgRab_RMm033HroBVEti-1" value="" style="whiteSpace=wrap;html=1;aspect=fixed;fillColor=#d2c6c6;strokeColor=#000000;" parent="FgRab_RMm033HroBVEti-28" vertex="1">
          <mxGeometry x="80" width="80" height="80" as="geometry" />
        </mxCell>
        <mxCell id="FgRab_RMm033HroBVEti-2" value="" style="endArrow=none;html=1;rounded=0;entryX=0;entryY=1;entryDx=0;entryDy=0;" parent="FgRab_RMm033HroBVEti-28" target="FgRab_RMm033HroBVEti-1" edge="1">
          <mxGeometry width="50" height="50" relative="1" as="geometry">
            <mxPoint x="80" y="210" as="sourcePoint" />
            <mxPoint x="400" y="160" as="targetPoint" />
          </mxGeometry>
        </mxCell>
        <mxCell id="FgRab_RMm033HroBVEti-7" value="" style="endArrow=none;html=1;rounded=0;entryX=1;entryY=1;entryDx=0;entryDy=0;" parent="FgRab_RMm033HroBVEti-28" target="FgRab_RMm033HroBVEti-1" edge="1">
          <mxGeometry width="50" height="50" relative="1" as="geometry">
            <mxPoint x="160" y="210" as="sourcePoint" />
            <mxPoint x="160" y="81" as="targetPoint" />
            <Array as="points">
              <mxPoint x="160" y="191" />
            </Array>
          </mxGeometry>
        </mxCell>
        <mxCell id="FgRab_RMm033HroBVEti-8" value="" style="endArrow=none;html=1;rounded=0;entryX=0.5;entryY=1;entryDx=0;entryDy=0;" parent="FgRab_RMm033HroBVEti-28" target="FgRab_RMm033HroBVEti-1" edge="1">
          <mxGeometry width="50" height="50" relative="1" as="geometry">
            <mxPoint x="120" y="211" as="sourcePoint" />
            <mxPoint x="120" y="90" as="targetPoint" />
            <Array as="points" />
          </mxGeometry>
        </mxCell>
        <mxCell id="FgRab_RMm033HroBVEti-14" value="" style="endArrow=none;html=1;rounded=0;" parent="FgRab_RMm033HroBVEti-28" edge="1">
          <mxGeometry width="50" height="50" relative="1" as="geometry">
            <mxPoint y="80" as="sourcePoint" />
            <mxPoint x="80" y="80" as="targetPoint" />
          </mxGeometry>
        </mxCell>
        <mxCell id="FgRab_RMm033HroBVEti-15" value="" style="shape=image;html=1;verticalAlign=top;verticalLabelPosition=bottom;labelBackgroundColor=#ffffff;imageAspect=0;aspect=fixed;image=https://cdn4.iconfinder.com/data/icons/transportation-190/1000/transport_automobile_auto_sedan_car_transportation_vehicle-128.png;rotation=90;" parent="FgRab_RMm033HroBVEti-28" vertex="1">
          <mxGeometry x="113" y="97" width="40" height="40" as="geometry" />
        </mxCell>
        <mxCell id="FgRab_RMm033HroBVEti-18" value="" style="shape=image;html=1;verticalAlign=top;verticalLabelPosition=bottom;labelBackgroundColor=#ffffff;imageAspect=0;aspect=fixed;image=https://cdn4.iconfinder.com/data/icons/transportation-190/1000/transport_automobile_auto_sedan_car_transportation_vehicle-128.png;rotation=90;" parent="FgRab_RMm033HroBVEti-28" vertex="1">
          <mxGeometry x="136" y="173" width="37" height="37" as="geometry" />
        </mxCell>
        <mxCell id="FgRab_RMm033HroBVEti-20" value="" style="endArrow=none;html=1;rounded=0;exitX=1;exitY=0;exitDx=0;exitDy=0;" parent="FgRab_RMm033HroBVEti-28" source="FgRab_RMm033HroBVEti-1" edge="1">
          <mxGeometry width="50" height="50" relative="1" as="geometry">
            <mxPoint x="200" y="10" as="sourcePoint" />
            <mxPoint x="240" as="targetPoint" />
          </mxGeometry>
        </mxCell>
        <mxCell id="FgRab_RMm033HroBVEti-21" value="" style="endArrow=none;html=1;rounded=0;" parent="FgRab_RMm033HroBVEti-28" edge="1">
          <mxGeometry width="50" height="50" relative="1" as="geometry">
            <mxPoint as="sourcePoint" />
            <mxPoint x="80" as="targetPoint" />
          </mxGeometry>
        </mxCell>
        <mxCell id="FgRab_RMm033HroBVEti-22" value="" style="endArrow=none;html=1;rounded=0;exitX=1;exitY=1;exitDx=0;exitDy=0;" parent="FgRab_RMm033HroBVEti-28" source="FgRab_RMm033HroBVEti-1" edge="1">
          <mxGeometry width="50" height="50" relative="1" as="geometry">
            <mxPoint x="400" y="240" as="sourcePoint" />
            <mxPoint x="240" y="80" as="targetPoint" />
          </mxGeometry>
        </mxCell>
        <mxCell id="FgRab_RMm033HroBVEti-23" value="" style="curved=1;endArrow=classic;html=1;rounded=0;exitX=0;exitY=0.5;exitDx=0;exitDy=0;" parent="FgRab_RMm033HroBVEti-28" edge="1">
          <mxGeometry width="50" height="50" relative="1" as="geometry">
            <mxPoint x="131" y="97" as="sourcePoint" />
            <mxPoint x="56" y="31" as="targetPoint" />
            <Array as="points">
              <mxPoint x="131" y="88" />
              <mxPoint x="126" y="61" />
              <mxPoint x="116" y="41" />
              <mxPoint x="96" y="31" />
            </Array>
          </mxGeometry>
        </mxCell>
        <mxCell id="FgRab_RMm033HroBVEti-48" value="" style="shape=image;html=1;verticalAlign=top;verticalLabelPosition=bottom;labelBackgroundColor=#ffffff;imageAspect=0;aspect=fixed;image=https://cdn2.iconfinder.com/data/icons/wanpix-construction-worker-1/64/Artboard_21-128.png" parent="FgRab_RMm033HroBVEti-28" vertex="1">
          <mxGeometry x="141" y="134" width="20" height="20" as="geometry" />
        </mxCell>
        <mxCell id="FgRab_RMm033HroBVEti-72" value="" style="endArrow=none;dashed=1;html=1;dashPattern=1 3;strokeWidth=2;rounded=0;entryX=0.25;entryY=1;entryDx=0;entryDy=0;exitX=1;exitY=0.75;exitDx=0;exitDy=0;" parent="FgRab_RMm033HroBVEti-28" edge="1">
          <mxGeometry width="50" height="50" relative="1" as="geometry">
            <mxPoint x="99" y="209" as="sourcePoint" />
            <mxPoint x="99" y="79" as="targetPoint" />
          </mxGeometry>
        </mxCell>
        <mxCell id="FgRab_RMm033HroBVEti-178" value="" style="group;rotation=90;" parent="FgRab_RMm033HroBVEti-28" vertex="1" connectable="0">
          <mxGeometry x="160" width="80" height="80" as="geometry" />
        </mxCell>
        <mxCell id="FgRab_RMm033HroBVEti-179" value="" style="endArrow=none;html=1;rounded=0;" parent="FgRab_RMm033HroBVEti-178" edge="1">
          <mxGeometry width="50" height="50" relative="1" as="geometry">
            <mxPoint x="80" as="sourcePoint" />
            <mxPoint as="targetPoint" />
          </mxGeometry>
        </mxCell>
        <mxCell id="FgRab_RMm033HroBVEti-180" value="" style="endArrow=none;html=1;rounded=0;" parent="FgRab_RMm033HroBVEti-178" edge="1">
          <mxGeometry width="50" height="50" relative="1" as="geometry">
            <mxPoint x="79" y="40" as="sourcePoint" />
            <mxPoint y="40" as="targetPoint" />
          </mxGeometry>
        </mxCell>
        <mxCell id="FgRab_RMm033HroBVEti-181" value="" style="endArrow=none;html=1;rounded=0;" parent="FgRab_RMm033HroBVEti-178" edge="1">
          <mxGeometry width="50" height="50" relative="1" as="geometry">
            <mxPoint x="80" y="80" as="sourcePoint" />
            <mxPoint y="80" as="targetPoint" />
          </mxGeometry>
        </mxCell>
        <mxCell id="FgRab_RMm033HroBVEti-182" value="" style="endArrow=none;dashed=1;html=1;dashPattern=1 3;strokeWidth=2;rounded=0;exitX=1;exitY=0.75;exitDx=0;exitDy=0;" parent="FgRab_RMm033HroBVEti-178" edge="1">
          <mxGeometry width="50" height="50" relative="1" as="geometry">
            <mxPoint x="1" y="22" as="sourcePoint" />
            <mxPoint x="70" y="22" as="targetPoint" />
          </mxGeometry>
        </mxCell>
        <mxCell id="FgRab_RMm033HroBVEti-183" value="" style="endArrow=none;dashed=1;html=1;dashPattern=1 3;strokeWidth=2;rounded=0;exitX=1;exitY=0.75;exitDx=0;exitDy=0;" parent="FgRab_RMm033HroBVEti-178" edge="1">
          <mxGeometry width="50" height="50" relative="1" as="geometry">
            <mxPoint x="1" y="62" as="sourcePoint" />
            <mxPoint x="70" y="62" as="targetPoint" />
          </mxGeometry>
        </mxCell>
        <mxCell id="koRiwNtVhz7t4iRK5Pyj-4" value="" style="endArrow=none;html=1;rounded=0;" parent="FgRab_RMm033HroBVEti-28" edge="1">
          <mxGeometry width="50" height="50" relative="1" as="geometry">
            <mxPoint x="10" y="39.51999999999998" as="sourcePoint" />
            <mxPoint x="80" y="39.51999999999998" as="targetPoint" />
          </mxGeometry>
        </mxCell>
        <mxCell id="lbXugLsnfdACKD_rXci8-6" value="" style="endArrow=none;dashed=1;html=1;dashPattern=1 3;strokeWidth=2;rounded=0;entryX=0.25;entryY=1;entryDx=0;entryDy=0;exitX=1;exitY=0.75;exitDx=0;exitDy=0;" parent="1" edge="1">
          <mxGeometry width="50" height="50" relative="1" as="geometry">
            <mxPoint x="534" y="252" as="sourcePoint" />
            <mxPoint x="534" y="122" as="targetPoint" />
          </mxGeometry>
        </mxCell>
        <mxCell id="lbXugLsnfdACKD_rXci8-7" value="" style="endArrow=none;dashed=1;html=1;dashPattern=1 3;strokeWidth=2;rounded=0;entryX=0.25;entryY=1;entryDx=0;entryDy=0;exitX=1;exitY=0.75;exitDx=0;exitDy=0;" parent="1" edge="1">
          <mxGeometry width="50" height="50" relative="1" as="geometry">
            <mxPoint x="236" y="573" as="sourcePoint" />
            <mxPoint x="236" y="443" as="targetPoint" />
          </mxGeometry>
        </mxCell>
        <mxCell id="lbXugLsnfdACKD_rXci8-8" value="" style="endArrow=none;dashed=1;html=1;dashPattern=1 3;strokeWidth=2;rounded=0;entryX=0.25;entryY=1;entryDx=0;entryDy=0;exitX=1;exitY=0.75;exitDx=0;exitDy=0;" parent="1" edge="1">
          <mxGeometry width="50" height="50" relative="1" as="geometry">
            <mxPoint x="494" y="572" as="sourcePoint" />
            <mxPoint x="494" y="442" as="targetPoint" />
          </mxGeometry>
        </mxCell>
        <mxCell id="XmKbkO3iN938YNJR6KFX-31" value="" style="shape=image;html=1;verticalAlign=top;verticalLabelPosition=bottom;labelBackgroundColor=#ffffff;imageAspect=0;aspect=fixed;image=https://cdn2.iconfinder.com/data/icons/crystalproject/128x128/apps/daemons.png" vertex="1" parent="1">
          <mxGeometry x="551" y="330" width="28" height="28" as="geometry" />
        </mxCell>
        <mxCell id="XmKbkO3iN938YNJR6KFX-32" value="" style="shape=image;html=1;verticalAlign=top;verticalLabelPosition=bottom;labelBackgroundColor=#ffffff;imageAspect=0;aspect=fixed;image=https://cdn2.iconfinder.com/data/icons/crystalproject/128x128/apps/daemons.png" vertex="1" parent="1">
          <mxGeometry x="291" y="11" width="28" height="28" as="geometry" />
        </mxCell>
        <mxCell id="XmKbkO3iN938YNJR6KFX-34" value="" style="shape=image;html=1;verticalAlign=top;verticalLabelPosition=bottom;labelBackgroundColor=#ffffff;imageAspect=0;aspect=fixed;image=https://cdn2.iconfinder.com/data/icons/crystalproject/128x128/apps/daemons.png" vertex="1" parent="1">
          <mxGeometry x="550" y="10" width="28" height="28" as="geometry" />
        </mxCell>
        <mxCell id="XmKbkO3iN938YNJR6KFX-35" value="" style="shape=image;html=1;verticalAlign=top;verticalLabelPosition=bottom;labelBackgroundColor=#ffffff;imageAspect=0;aspect=fixed;image=https://cdn2.iconfinder.com/data/icons/crystalproject/128x128/apps/daemons.png;rotation=-90;" vertex="1" parent="1">
          <mxGeometry x="182" y="338" width="28" height="28" as="geometry" />
        </mxCell>
        <mxCell id="XmKbkO3iN938YNJR6KFX-36" value="" style="shape=image;html=1;verticalAlign=top;verticalLabelPosition=bottom;labelBackgroundColor=#ffffff;imageAspect=0;aspect=fixed;image=https://cdn2.iconfinder.com/data/icons/crystalproject/128x128/apps/daemons.png;rotation=-90;" vertex="1" parent="1">
          <mxGeometry x="445" y="15" width="28" height="28" as="geometry" />
        </mxCell>
        <mxCell id="XmKbkO3iN938YNJR6KFX-37" value="" style="shape=image;html=1;verticalAlign=top;verticalLabelPosition=bottom;labelBackgroundColor=#ffffff;imageAspect=0;aspect=fixed;image=https://cdn2.iconfinder.com/data/icons/crystalproject/128x128/apps/daemons.png;rotation=-90;" vertex="1" parent="1">
          <mxGeometry x="715" y="14" width="28" height="28" as="geometry" />
        </mxCell>
        <mxCell id="XmKbkO3iN938YNJR6KFX-38" value="" style="shape=image;html=1;verticalAlign=top;verticalLabelPosition=bottom;labelBackgroundColor=#ffffff;imageAspect=0;aspect=fixed;image=https://cdn2.iconfinder.com/data/icons/crystalproject/128x128/apps/daemons.png;rotation=-90;" vertex="1" parent="1">
          <mxGeometry x="180" y="10" width="28" height="28" as="geometry" />
        </mxCell>
      </root>
    </mxGraphModel>
  </diagram>
</mxfile>
